<?xml version="1.0" encoding="utf-8"?>
<!-- Generator: Adobe Illustrator 19.1.0, SVG Export Plug-In . SVG Version: 6.00 Build 0)  -->
<svg version="1.0" id="Camada_1" xmlns="http://www.w3.org/2000/svg" xmlns:xlink="http://www.w3.org/1999/xlink" x="0px" y="0px"
	 viewBox="0 0 841.9 595.3" enable-background="new 0 0 841.9 595.3" xml:space="preserve">
<path d="M171.8,178.9c-1.8-6.8,2.3-13.8,9.1-15.5c6.8-1.8,13.8,2.3,15.5,9.1c1.8,6.8-2.3,13.8-9.1,15.5
	C180.5,189.7,173.6,185.7,171.8,178.9 M659.4,187.9c6.8,1.8,13.8-2.3,15.5-9.1c1.8-6.8-2.3-13.8-9.1-15.5
	c-6.8-1.8-13.8,2.3-15.5,9.1C648.5,179.2,652.6,186.1,659.4,187.9 M613.4,170.6c-4.5-1-8.9-2-13.4-2.9c-4.5-0.9-9-1.8-13.5-2.6
	c-4.5-0.8-9-1.6-13.6-2.3c-4.5-0.7-9.1-1.4-13.6-2c-4.6-0.6-9.1-1.2-13.7-1.7c-4.6-0.5-9.1-1-13.7-1.4c-3.8-0.4-7.6-0.7-11.4-1
	c-0.9-2.7-1.7-5.5-2.5-8.3c-1-3.5-1.9-7-2.7-10.5c-0.3-1-1-2-2-2.4c-1.8-0.8-3.9,0.1-4.6,1.8l0,0L494.6,170l-12.7-50.9
	c-0.3-1.3-1.4-2.5-2.9-2.8c-2-0.4-4,0.9-4.5,2.9l0,0c-2.4,11.5-4.9,23.1-7.6,34.5c-9.3-0.2-18.6-0.4-27.9-0.5
	c-10.4-0.1-20.7,0-31.1,0.1l-15.5,0.3c-5.2,0.1-10.4,0.2-15.5,0.4c-10.4,0.4-20.7,0.8-31,1.3c-5.2,0.3-10.3,0.5-15.5,0.9l-15.5,1
	c-5.2,0.4-10.3,0.7-15.5,1.2c-5.2,0.4-10.3,0.9-15.5,1.4c-5.2,0.5-10.3,1-15.5,1.6c-5.1,0.5-10.3,1.2-15.4,1.8
	c-5.1,0.7-10.3,1.4-15.4,2.2c-5.1,0.8-10.2,1.7-15.3,2.6c5.2-0.4,10.3-0.8,15.5-1.1c5.1-0.4,10.3-0.6,15.5-0.9
	c5.2-0.3,10.3-0.6,15.5-0.8l15.5-0.7c10.3-0.4,20.6-0.7,31-1.1l31-0.8c10.3-0.3,20.6-0.5,31-0.6l15.5-0.3l15.5-0.2l31-0.1
	c10.3,0,20.6,0.1,30.9,0.3l0,0c1.8,0,3.5-1.2,3.9-3.1c1.5-6.3,2.8-12.6,4.1-19l0.6-2.9l11.5,45.3l0,0c0.3,1,1,2,2.1,2.4
	c1.8,0.8,3.9-0.1,4.7-1.9l14.2-33.3c0.1,0.3,0.2,0.6,0.2,0.8c1,3.6,2.1,7.1,3.4,10.7l0,0.1c0.4,1.2,1.6,2.1,3,2.2
	c4.6,0.2,9.1,0.4,13.7,0.7c4.6,0.3,9.1,0.5,13.7,0.9c4.6,0.3,9.1,0.6,13.7,1c4.5,0.4,9.1,0.8,13.6,1.2c4.5,0.5,9.1,0.9,13.6,1.4
	c4.5,0.5,9.1,1.1,13.6,1.6c4.5,0.6,9.1,1.2,13.6,1.8c4.5,0.6,9.1,1.3,13.6,2C622.3,172.8,617.9,171.7,613.4,170.6 M655.4,268.6
	c5.3,1.2,9,5.9,9,11.3v110c0,5.5-3.8,10.2-9.1,11.4c-27.3,6-114.3,22.7-235.6,22.7c-120.5,0-202.1-16.5-228.2-22.6
	c-5.3-1.2-9-5.9-9-11.3V279.8c0-5.3,3.6-10,8.8-11.3c27.7-6.8,117.6-26.7,228.4-26.7C531.1,241.8,626.5,261.8,655.4,268.6
	 M604.3,286.4c0-4.7-3.3-8.9-7.9-9.9c-25.4-5.9-78.7-23.5-176.3-23.5c-97.1,0-180.1,17.4-204.3,23.4c-4.5,1.1-7.7,5.2-7.7,9.9V383
	c0,4.7,3.3,8.8,7.9,9.9c22.9,5.3,98.6,19.8,204.2,19.8c106.3,0,152.2-14.6,176.2-19.9c4.7-1,8-5.2,8-10V286.4z M634.4,344.7
	c6.5,0,11.8-5.3,11.8-11.8s-5.3-11.8-11.8-11.8c-6.5,0-11.8,5.3-11.8,11.8S627.9,344.7,634.4,344.7 M226.1,209.4
	c1.6,5.4-6.2,12.6-18.4,17.9c5.4,7.7,15.7,19.3,17,21.3c0.3,0.4,0.4,0.9,0.4,1.5c0,1.2-0.7,2.3-1.8,2.6c-0.5,0.2-10.4,2.3-19.4,4.4
	c-8.9,2.3-18.7,5-19.2,5.1c-1.1,0.2-2.2-0.5-2.8-1.5c-0.3-0.5-0.4-1-0.3-1.5c0.2-2.4,4-17.4,5.2-26.8c-13.2,1-23.5-1.8-24.5-7.3
	c-1.2-6.3,10.1-13.9,25.7-17.6c0-6.2-0.1-10.8-0.1-10.8c0-0.5,0.3-1,0.9-1.1c0.5-0.1,1,0.1,1.3,0.6c0,0,2,4.1,4.9,9.6
	C210.8,201.8,224.3,203.3,226.1,209.4 M187.4,229.7c0.6-5.8,0.8-12.9,0.9-19c-11.5,3-19.7,8.6-18.8,13.3
	C170.2,228,177.7,230.2,187.4,229.7 M206.2,225c8.8-4,14.4-9.4,13.2-13.3c-1.4-4.6-11.2-5.7-22.8-3.1C199.6,214,203,220.2,206.2,225
	 M639,227.3c-12.2-5.2-20-12.5-18.4-17.9c1.8-6.1,15.3-7.6,31-3.7c2.9-5.5,4.9-9.6,4.9-9.6c0.2-0.5,0.7-0.7,1.3-0.6
	c0.5,0.1,0.9,0.5,0.9,1.1c0,0-0.1,4.6-0.1,10.8c15.7,3.7,27,11.3,25.7,17.6c-1.1,5.5-11.4,8.3-24.5,7.3c1.2,9.4,5,24.4,5.2,26.8
	c0,0.5-0.1,1-0.3,1.5c-0.5,1-1.7,1.7-2.8,1.5c-0.5-0.1-10.3-2.7-19.2-5.1c-9-2.1-18.9-4.2-19.4-4.4c-1.1-0.3-1.8-1.4-1.8-2.6
	c0-0.5,0.2-1.1,0.4-1.5C623.2,246.6,633.6,235,639,227.3 M658.5,210.7c0.1,6.1,0.3,13.2,0.9,19c9.7,0.5,17.1-1.6,17.9-5.7
	C678.2,219.3,670,213.7,658.5,210.7 M627.2,211.7c-1.2,4,4.4,9.3,13.2,13.3c3.2-4.9,6.7-11,9.6-16.4
	C638.4,205.9,628.6,207.1,627.2,211.7 M311.4,324h18.9c0-2.3,0-4.6,0-6.9c0-2.7,0.3-3,2.9-3.1c16.7-0.4,33.5-0.7,50.2-1
	c0.6,0,1.2,0,2,0c-0.2-8.8-0.3-17.4-0.5-26.3c-1.4,0-2.7,0-3.9,0c-13.7,0.5-27.4,1-41.2,1.6c-6.7,0.3-13.4,0.8-20.1,1.4
	c-3.9,0.4-6.7,2.6-7.8,6.5c-0.6,2.1-0.9,4.4-0.9,6.6c0,6.1,0.2,12.2,0.2,18.3C311.4,322.3,311.4,323.1,311.4,324z M241.5,324
	c0-0.9,0-1.7,0-2.6c0-1.5,0.5-2.3,2.1-2.4c7.3-0.5,14.6-1.2,22-1.7c6.2-0.4,11.2,2.1,14.4,6.7h21.3c-1.3-5.2-3.4-10.2-6.5-14.9
	c-7.4-11.1-17.7-15.5-30.8-13.6c-11.9,1.8-23.7,3.6-35.6,5.3c-2.6,0.4-4.7,1.2-5.7,3.9V324H241.5z M394.1,324h19
	c-0.1-4.5-0.1-7.9-0.1-8.8c0-1.9,0.3-2.3,2.2-2.2c6.7,0.1,13.4,0.3,20.1,0.2c9.2-0.2,14.6,4.6,17.5,10.8h20.5
	c-1.8-8.9-5.8-17.1-12.1-24.6c-5.9-7-13.3-11.6-22.7-11.9c-13.2-0.5-26.4-0.6-39.6-0.8c-3.7-0.1-5.1,1.3-5.4,5c-0.1,0.7,0,1.4,0,2.1
	C393.8,303.9,394,314,394.1,324z M534.3,324c3.5-4.8,9.3-7.1,16.6-6.3c2.3,0.3,32.9,2.5,36.4,2.8v-18.6c-0.3-0.1-0.6-0.2-0.8-0.2
	c-13.6-1.9-27.1-4-40.7-5.6c-6.9-0.8-13.5,0.9-19.1,5.2c-6,4.6-10,10.8-12.3,17.9c-0.5,1.7-1,3.3-1.4,5H534.3z M502.6,324
	c-0.1-10.9-0.3-21.9-0.4-32.9c-6.5-0.5-12.8-0.9-19.2-1.4c0.2,11.5,0.3,22.9,0.5,34.3H502.6z M587.3,333.7
	c-6.3-0.3-12.4-0.5-18.7-0.8c0,0.9,0,1.5,0,2.1c0,5.9,0,11.8,0.1,17.7c0,1.3-0.3,2.2-1.8,2.3c-6.4,0.3-12.8,0.7-19.1,0.9
	c-3,0.1-5.8-0.7-8.3-2.5c-7-4.9-9.4-11.9-8.5-20.1c0.3-2.3,0.8-4.3,1.6-6.1h-20.2c-1.7,10.2-0.3,20.3,4,30.1
	c2.4,5.4,5.7,10.2,10.4,13.9c7,5.4,14.8,7.4,23.7,6.1c10.7-1.6,21.5-2.9,32.3-4.3c3.3-0.4,4.7-2,4.7-5.5c0-10.8,0-21.6,0-32.4
	C587.4,334.7,587.4,334.3,587.3,333.7z M454.1,327.2c2.6,8.2,2.1,16.2-2.8,23.6c-3.1,4.7-7.5,7.1-13.1,7.2c-3.6,0.1-18.3,0.1-22,0.1
	c-2.3,0-2.5-0.2-2.5-2.5c-0.1-6.5-0.3-19.1-0.5-28.5h-19c0.1,2.7,0.1,5.4,0.2,8.1c0.2,13.8,0.4,27.7,0.6,41.5c0,1.2,0.1,2.4,0.2,3.5
	c0.5,3.2,2,4.5,5.2,4.5c13.2-0.1,26.5-0.1,39.7-0.4c2.4,0,4.8-0.6,7.1-1.3c7.3-2.1,12.5-7.1,16.9-13c6.3-8.5,9.5-18.2,10.3-28.7
	c0.4-4.9,0.2-9.7-0.5-14.3H454.1z M483.5,327.2c0.3,18.6,0.5,37.1,0.8,55.7c6.4-0.4,12.6-0.7,19.1-1.1c-0.2-18.3-0.5-36.4-0.7-54.6
	H483.5z M281.8,327.2c1,2.2,1.6,4.7,1.9,7.4c0.6,6.1-1,11.7-5.3,16.3c-2.9,3-6.8,4.4-10.9,4.4c-8.1-0.1-16.2-0.5-24.3-0.8
	c-1.3,0-1.5-0.9-1.5-2c0-5.3,0-10.5,0-15.8h-0.1c0-3.2,0-6.3,0-9.5h-19v41.9c0.7,2.4,2.4,3.6,4.8,3.8c2.2,0.2,4.5,0.5,6.7,0.7
	c7.2,0.8,14.4,1.6,21.5,2.4c4.5,0.5,9,1.2,13.6,1.3c6.9,0.2,13.4-1.4,18.9-6c4.2-3.6,7.6-7.8,9.9-12.9c2.5-5.4,4-11.1,4.5-17
	c0.4-4.9,0.2-9.6-0.5-14.2H281.8z M384.6,358.9c-8.7-0.1-17.4-0.1-26.1-0.3c-8.4-0.1-16.7-0.3-25.1-0.5c-1.2,0-2.5-0.1-2.5-1.6
	c-0.1-3.9,0-7.8,0-11.9c0.7,0,1.3,0,2,0c17,0.1,33.9,0.1,50.9,0.2c1.4,0,1.9-0.3,1.8-1.8c-0.2-4.9-0.2-9.9-0.2-14.8c0-0.4,0-0.7,0-1
	h-73.8c0.2,14.3,0.3,28.6,0.6,42.9c0,2,0.6,4.2,1.3,6.1c1.3,3.4,4,5.3,7.6,5.5c7.9,0.5,15.7,1,23.6,1.3c13.4,0.6,26.9,1,40.4,1.5
	c0.4,0,0.8-0.1,1.3-0.1c0-0.3,0.1-0.6,0.1-0.8c-0.1-7.8-0.2-15.7-0.3-23.5C386.2,358.9,385.5,358.9,384.6,358.9z"/>
</svg>
