<?xml version="1.0" encoding="utf-8"?>
<!-- Generator: Adobe Illustrator 19.1.0, SVG Export Plug-In . SVG Version: 6.00 Build 0)  -->
<svg version="1.0" id="Camada_1" xmlns="http://www.w3.org/2000/svg" xmlns:xlink="http://www.w3.org/1999/xlink" x="0px" y="0px"
	 viewBox="0 0 841.9 595.3" enable-background="new 0 0 841.9 595.3" xml:space="preserve">
<g>
	<path fill="#F6A623" d="M168.8,179.9c-1.8-6.8,2.3-13.8,9.1-15.5c6.8-1.8,13.8,2.3,15.5,9.1c1.8,6.8-2.3,13.8-9.1,15.5
		C177.5,190.7,170.6,186.7,168.8,179.9"/>
	<path fill="#F6A623" d="M656.4,188.9c-6.8-1.8-10.9-8.7-9.1-15.5c1.8-6.8,8.7-10.9,15.5-9.1c6.8,1.8,10.9,8.7,9.1,15.5
		C670.1,186.7,663.2,190.7,656.4,188.9"/>
	<path fill="#F6A623" d="M219.6,305.8c1-2.6,3.1-3.5,5.7-3.9c11.9-1.7,23.7-3.5,35.6-5.3c13.1-2,23.5,2.5,30.8,13.6
		c6.6,9.8,8.7,20.7,7.7,32.3c-0.5,5.9-1.9,11.6-4.5,17c-2.4,5.1-5.7,9.3-9.9,12.9c-5.4,4.6-11.9,6.2-18.9,6
		c-4.5-0.1-9.1-0.8-13.6-1.3c-7.2-0.8-14.4-1.6-21.5-2.4c-2.2-0.3-4.5-0.5-6.7-0.7c-2.4-0.2-4.1-1.4-4.8-3.8V305.8z M238.5,337.7
		L238.5,337.7c0.1,5.3,0.1,10.5,0,15.8c0,1.1,0.2,1.9,1.5,2c8.1,0.3,16.2,0.7,24.3,0.8c4.1,0.1,8-1.3,10.9-4.4
		c4.4-4.5,5.9-10.1,5.3-16.3c-1-10.8-8.1-18-18.1-17.3c-7.3,0.5-14.6,1.2-22,1.7c-1.6,0.1-2.1,0.9-2.1,2.4
		C238.6,327.5,238.5,332.6,238.5,337.7"/>
	<path fill="#F6A623" d="M381.9,287.8c0.2,8.8,0.3,17.4,0.5,26.3c-0.8,0-1.4,0-2,0c-16.7,0.3-33.5,0.7-50.2,1
		c-2.6,0.1-2.9,0.4-2.9,3.1c0,3.1,0,6.3,0,9.6c0.8,0,1.4,0,2,0c17-0.2,33.9-0.4,50.9-0.6c2.1,0,2.2,0,2.2,2.1
		c0.1,4.9,0.1,9.9,0.2,14.8c0,1.5-0.5,1.8-1.8,1.8c-17-0.1-33.9-0.2-50.9-0.2c-0.7,0-1.4,0-2,0c0,4.1-0.1,8,0,11.9
		c0,1.5,1.3,1.6,2.5,1.6c8.4,0.2,16.7,0.4,25.1,0.5c8.7,0.1,17.4,0.2,26.1,0.3c0.9,0,1.5,0,1.5,1.2c0.1,7.8,0.2,15.7,0.3,23.5
		c0,0.3-0.1,0.5-0.1,0.9c-0.5,0-0.9,0.1-1.3,0.1c-13.5-0.5-26.9-0.9-40.4-1.5c-7.9-0.3-15.7-0.8-23.6-1.3c-3.6-0.2-6.3-2.1-7.6-5.5
		c-0.7-1.9-1.3-4-1.3-6.1c-0.3-16.3-0.5-32.5-0.7-48.8c-0.1-6.1-0.3-12.2-0.2-18.3c0-2.2,0.3-4.5,0.9-6.6c1-3.9,3.9-6.1,7.8-6.5
		c6.7-0.6,13.4-1.1,20.1-1.4c13.7-0.6,27.4-1.1,41.2-1.6C379.2,287.8,380.5,287.8,381.9,287.8"/>
	<path fill="#F6A623" d="M391.4,336.4c-0.3-13.8-0.5-27.7-0.8-41.5c0-0.7,0-1.4,0-2.1c0.3-3.7,1.7-5.1,5.4-5
		c13.2,0.2,26.4,0.3,39.6,0.8c9.3,0.3,16.7,4.9,22.7,11.9c10.3,12.2,14.3,26.4,13.1,42.1c-0.8,10.5-4,20.2-10.3,28.7
		c-4.4,5.9-9.6,10.9-16.9,13c-2.3,0.6-4.7,1.2-7.1,1.3c-13.2,0.2-26.5,0.3-39.7,0.4c-3.2,0-4.7-1.3-5.2-4.5
		c-0.2-1.2-0.2-2.3-0.2-3.5C391.7,364,391.5,350.2,391.4,336.4 M435.2,359.1c5.6-0.1,10-2.6,13.1-7.2c5-7.6,5.4-15.8,2.6-24.2
		c-2.5-7.6-8.1-13.7-18.5-13.5c-6.7,0.1-13.4-0.1-20.1-0.2c-1.9,0-2.2,0.3-2.2,2.2c0,2.8,0.4,29.8,0.6,40.5c0,2.3,0.2,2.5,2.5,2.5
		C416.9,359.2,431.6,359.2,435.2,359.1"/>
	<path fill="#F6A623" d="M584.3,334.7c0,0.6,0.1,1.1,0.1,1.5c0,10.8,0,21.6,0,32.4c0,3.5-1.4,5.1-4.7,5.5
		c-10.8,1.4-21.6,2.7-32.3,4.3c-8.9,1.3-16.7-0.7-23.7-6.1c-4.8-3.7-8.1-8.5-10.4-13.9c-5.4-12.5-6.2-25.3-2-38.3
		c2.3-7.1,6.3-13.3,12.3-17.9c5.6-4.3,12.2-6,19.1-5.2c13.6,1.7,27.2,3.7,40.7,5.6c0.3,0,0.5,0.2,0.8,0.2v18.6
		c-3.5-0.3-34.1-2.5-36.4-2.8c-11-1.3-18.7,4.6-20,15.6c-0.9,8.2,1.4,15.2,8.5,20.1c2.5,1.8,5.3,2.6,8.3,2.5
		c6.4-0.2,12.8-0.6,19.1-0.9c1.6-0.1,1.8-1,1.8-2.3c0-5.9,0-11.8-0.1-17.7c0-0.6,0-1.3,0-2.1C571.9,334.1,578,334.4,584.3,334.7"/>
	<path fill="#F6A623" d="M500.3,382.8c-6.5,0.4-12.6,0.7-19.1,1.1c-0.4-31.1-0.9-61.9-1.3-93.1c6.4,0.5,12.8,0.9,19.2,1.4
		C499.6,322.4,500,352.4,500.3,382.8"/>
</g>
<g>
	<path fill="#E56618" d="M531.1,325.2h-21.3c-2.5,11.2-1.3,22.3,3.4,33.1c2.4,5.4,5.7,10.2,10.4,13.9c7,5.4,14.8,7.4,23.7,6.1
		c10.7-1.6,21.5-2.9,32.3-4.3c3.3-0.4,4.7-2,4.7-5.5c0-10.8,0-21.6,0-32.4c0-0.4,0-0.8-0.1-1.5c-6.3-0.3-12.4-0.5-18.7-0.8
		c0,0.9,0,1.5,0,2.2c0,5.9,0,11.8,0.1,17.7c0,1.3-0.3,2.2-1.8,2.3c-6.4,0.3-12.7,0.7-19.1,0.9c-3,0.1-5.8-0.7-8.3-2.5
		c-7-4.9-9.4-11.9-8.5-20.1C528.3,330.7,529.4,327.7,531.1,325.2"/>
	<path fill="#E56618" d="M224.4,373.9c2.2,0.2,4.5,0.5,6.7,0.7c7.2,0.8,14.4,1.6,21.5,2.4c4.5,0.5,9,1.2,13.6,1.3
		c6.9,0.2,13.4-1.4,18.9-6c4.2-3.6,7.6-7.8,9.9-12.9c2.5-5.4,4-11.1,4.5-17c0.5-5.9,0.2-11.7-1.2-17.2h-21.2
		c1.9,2.8,3.1,6.3,3.5,10.4c0.6,6.1-1,11.7-5.3,16.3c-2.9,3-6.8,4.4-10.9,4.4c-8.1-0.1-16.2-0.5-24.3-0.8c-1.3,0-1.5-0.9-1.5-2
		c0-5.3,0-10.5,0-15.8h-0.1c0-4.2,0-8.3,0-12.5h-18.9v44.9C220.3,372.5,222,373.7,224.4,373.9"/>
	<path fill="#E56618" d="M391.4,336.4c0.2,13.8,0.4,27.7,0.6,41.5c0,1.2,0.1,2.4,0.2,3.5c0.5,3.2,2,4.5,5.2,4.5
		c13.2-0.1,26.5-0.1,39.7-0.4c2.4,0,4.8-0.6,7.1-1.3c7.3-2.1,12.5-7.1,16.9-13c6.3-8.5,9.5-18.2,10.3-28.7c0.4-6,0.1-11.8-1-17.3
		H450c0.4,0.8,0.7,1.6,1,2.4c2.8,8.4,2.4,16.6-2.6,24.2c-3.1,4.7-7.5,7.1-13.1,7.2c-3.6,0.1-18.3,0.1-22,0.1c-2.3,0-2.5-0.2-2.5-2.5
		c-0.1-7.2-0.4-21.9-0.5-31.5h-19C391.2,328.9,391.3,332.7,391.4,336.4"/>
	<path fill="#E56618" d="M481.3,383.9c6.4-0.4,12.6-0.7,19.1-1.1c-0.2-19.3-0.5-38.4-0.7-57.6h-19.2
		C480.7,344.8,481,364.3,481.3,383.9"/>
	<path fill="#E56618" d="M309.1,371.1c0,2,0.6,4.2,1.3,6.1c1.3,3.4,4,5.3,7.6,5.5c7.9,0.5,15.7,1,23.6,1.3c13.4,0.6,26.9,1,40.4,1.5
		c0.4,0,0.8-0.1,1.3-0.1c0-0.3,0.1-0.6,0.1-0.9c-0.1-7.8-0.2-15.7-0.3-23.5c0-1.2-0.7-1.2-1.5-1.2c-8.7-0.1-17.4-0.1-26.1-0.3
		c-8.4-0.1-16.7-0.3-25.1-0.5c-1.2,0-2.5-0.1-2.5-1.6c-0.1-3.9,0-7.8,0-11.9c0.7,0,1.3,0,2,0c17,0.1,33.9,0.1,50.9,0.2
		c1.4,0,1.9-0.3,1.8-1.8c-0.2-4.9-0.2-9.9-0.2-14.8c0-2.1-0.1-2.1-2.2-2.1c-17,0.2-33.9,0.4-50.9,0.6c-0.6,0-1.1,0-2,0
		c0-0.9,0-1.7,0-2.6h-18.9C308.6,340.5,308.8,355.8,309.1,371.1"/>
</g>
<path fill="#EA4A8B" d="M610.4,171.6c-4.5-1-8.9-2-13.4-2.9c-4.5-0.9-9-1.8-13.5-2.6c-4.5-0.8-9-1.6-13.6-2.3
	c-4.5-0.7-9.1-1.4-13.6-2c-4.6-0.6-9.1-1.2-13.7-1.7c-4.6-0.5-9.1-1-13.7-1.4c-3.8-0.4-7.6-0.7-11.4-1c-0.9-2.7-1.7-5.5-2.5-8.3
	c-1-3.5-1.9-7-2.7-10.5c-0.3-1-1-2-2-2.4c-1.8-0.8-3.9,0.1-4.6,1.8l0,0L491.6,171l-12.7-50.9c-0.3-1.3-1.4-2.5-2.9-2.8
	c-2-0.4-4,0.9-4.5,2.9l0,0c-2.4,11.5-4.9,23.1-7.6,34.5c-9.3-0.2-18.6-0.4-27.9-0.5c-10.4-0.1-20.7,0-31.1,0.1l-15.5,0.3
	c-5.2,0.1-10.4,0.2-15.5,0.4c-10.4,0.4-20.7,0.8-31,1.3c-5.2,0.3-10.3,0.5-15.5,0.9l-15.5,1c-5.2,0.4-10.3,0.7-15.5,1.2
	c-5.2,0.4-10.3,0.9-15.5,1.4c-5.2,0.5-10.3,1-15.5,1.6c-5.1,0.5-10.3,1.2-15.4,1.8c-5.1,0.7-10.3,1.4-15.4,2.2
	c-5.1,0.8-10.2,1.7-15.3,2.6c5.2-0.4,10.3-0.8,15.5-1.1c5.1-0.4,10.3-0.6,15.5-0.9c5.2-0.3,10.3-0.6,15.5-0.8l15.5-0.7
	c10.3-0.4,20.6-0.7,31-1.1l31-0.8c10.3-0.3,20.6-0.5,31-0.6l15.5-0.3l15.5-0.2l31-0.1c10.3,0,20.6,0.1,30.9,0.3l0,0
	c1.8,0,3.5-1.2,3.9-3.1c1.5-6.3,2.8-12.6,4.1-19l0.6-2.9l11.5,45.3l0,0c0.3,1,1,2,2.1,2.4c1.8,0.8,3.9-0.1,4.7-1.9l14.2-33.3
	c0.1,0.3,0.2,0.6,0.2,0.8c1,3.6,2.1,7.1,3.4,10.7l0,0.1c0.4,1.2,1.6,2.1,3,2.2c4.6,0.2,9.1,0.4,13.7,0.7c4.6,0.3,9.1,0.5,13.7,0.9
	c4.6,0.3,9.1,0.6,13.7,1c4.5,0.4,9.1,0.8,13.6,1.2c4.5,0.5,9.1,0.9,13.6,1.4c4.5,0.5,9.1,1.1,13.6,1.6c4.5,0.6,9.1,1.2,13.6,1.8
	c4.5,0.6,9.1,1.3,13.6,2C619.3,173.8,614.9,172.7,610.4,171.6"/>
<g>
	<path fill="#2BA7E7" d="M652.4,269.6c-28.9-6.7-124.4-26.8-235.7-26.8c-110.8,0-200.7,19.9-228.4,26.7c-5.2,1.3-8.8,5.9-8.8,11.3
		V391c0,5.4,3.7,10.1,9,11.3c26.1,6.1,107.7,22.6,228.2,22.6c121.3,0,208.2-16.7,235.6-22.7c5.3-1.2,9.1-5.9,9.1-11.4v-110
		C661.4,275.5,657.7,270.8,652.4,269.6 M601.3,383.8c0,4.8-3.3,8.9-8,10c-24,5.3-69.9,19.9-176.2,19.9
		c-105.6,0-181.3-14.5-204.2-19.8c-4.6-1.1-7.9-5.2-7.9-9.9v-96.6c0-4.7,3.2-8.8,7.7-9.9c24.3-6,107.2-23.4,204.3-23.4
		c97.6,0,150.9,17.6,176.3,23.5c4.6,1.1,7.9,5.2,7.9,9.9V383.8z M631.4,345.7c-6.5,0-11.8-5.3-11.8-11.8s5.3-11.8,11.8-11.8
		c6.5,0,11.8,5.3,11.8,11.8S637.9,345.7,631.4,345.7"/>
	<path fill="#2BA7E7" d="M223.1,210.4c-1.8-6.1-15.3-7.6-31-3.7c-2.9-5.5-4.9-9.6-4.9-9.6c-0.2-0.5-0.7-0.7-1.3-0.6
		c-0.5,0.1-0.9,0.5-0.9,1.1c0,0,0.1,4.6,0.1,10.8c-15.7,3.7-27,11.3-25.7,17.6c1.1,5.5,11.4,8.3,24.5,7.3c-1.2,9.4-5,24.4-5.2,26.8
		c0,0.5,0.1,1,0.3,1.5c0.5,1,1.7,1.7,2.8,1.5c0.5-0.1,10.3-2.7,19.2-5.1c9-2.1,18.9-4.2,19.4-4.4c1.1-0.3,1.8-1.4,1.8-2.6
		c0-0.5-0.2-1.1-0.4-1.5c-1.3-2.1-11.6-13.6-17-21.3C216.9,223,224.7,215.8,223.1,210.4 M184.4,230.7c-9.7,0.5-17.1-1.6-17.9-5.7
		c-0.9-4.7,7.2-10.3,18.8-13.3C185.2,217.8,184.9,224.9,184.4,230.7 M203.2,226c-3.2-4.9-6.7-11-9.6-16.4
		c11.6-2.7,21.5-1.5,22.8,3.1C217.7,216.7,212.1,222,203.2,226"/>
	<path fill="#2BA7E7" d="M636,228.3c-5.4,7.7-15.7,19.3-17,21.3c-0.3,0.4-0.4,0.9-0.4,1.5c0,1.2,0.7,2.3,1.8,2.6
		c0.5,0.2,10.4,2.3,19.4,4.4c8.9,2.3,18.7,5,19.2,5.1c1.1,0.2,2.2-0.5,2.8-1.5c0.3-0.5,0.4-1,0.3-1.5c-0.2-2.4-4-17.4-5.2-26.8
		c13.2,1,23.5-1.8,24.5-7.3c1.2-6.3-10.1-13.9-25.7-17.6c0-6.2,0.1-10.8,0.1-10.8c0-0.5-0.3-1-0.9-1.1c-0.5-0.1-1,0.1-1.3,0.6
		c0,0-2,4.1-4.9,9.6c-15.6-3.9-29.1-2.5-31,3.7C616,215.8,623.8,223,636,228.3 M655.5,211.7c11.5,3,19.7,8.6,18.8,13.3
		c-0.8,4.1-8.2,6.2-17.9,5.7C655.8,224.9,655.6,217.8,655.5,211.7 M624.2,212.7c1.4-4.6,11.2-5.8,22.8-3.1
		c-2.9,5.4-6.4,11.6-9.6,16.4C628.6,222,623.1,216.7,624.2,212.7"/>
	<g>
		<path fill="#2BA7E7" d="M154.1,460.3c2.9,0,5.2,1,6.9,2.9c0.8,0.8,1.3,1.8,1.7,2.9c0.4,1.1,0.6,2.2,0.6,3.3s-0.2,2.2-0.6,3.3
			c-0.4,1.1-0.9,2-1.7,2.9c-1.7,1.9-4,2.9-6.9,2.9h-5.2c-0.3,0-0.6-0.1-0.8-0.3s-0.3-0.5-0.3-0.8v-15.8c0-0.3,0.1-0.6,0.3-0.8
			c0.2-0.2,0.5-0.4,0.8-0.4H154.1z M153.9,476.3c2.1,0,3.9-0.6,5.2-1.9c1.3-1.3,1.9-2.9,1.9-5c0-2-0.6-3.7-1.9-5
			c-1.3-1.3-3.1-1.9-5.2-1.9h-3.7v13.7H153.9z"/>
		<path fill="#2BA7E7" d="M182.2,476.6c0.2,0.2,0.3,0.5,0.3,0.8c0,0.3-0.1,0.6-0.3,0.8c-0.2,0.2-0.5,0.3-0.8,0.3H171
			c-0.3,0-0.6-0.1-0.8-0.3s-0.3-0.5-0.3-0.8v-15.8c0-0.3,0.1-0.6,0.3-0.8c0.2-0.2,0.5-0.4,0.8-0.4h10.4c0.3,0,0.6,0.1,0.8,0.3
			c0.2,0.2,0.3,0.5,0.3,0.8c0,0.3-0.1,0.6-0.3,0.8c-0.2,0.2-0.5,0.3-0.8,0.3h-9.2v5.7h8.3c0.3,0,0.6,0.1,0.8,0.3
			c0.2,0.2,0.3,0.5,0.3,0.8c0,0.3-0.1,0.6-0.3,0.8c-0.2,0.2-0.5,0.3-0.8,0.3h-8.3v5.8h9.2C181.8,476.3,182,476.4,182.2,476.6z"/>
		<path fill="#2BA7E7" d="M194.5,476.5c3,0,4.6-1,4.6-3c0-0.8-0.6-1.5-1.7-2c-0.5-0.2-1.1-0.4-1.8-0.6c-0.7-0.2-1.3-0.3-2-0.5
			c-0.7-0.2-1.4-0.4-2-0.7c-0.7-0.2-1.3-0.6-1.8-0.9c-1.1-0.9-1.7-2-1.7-3.4c0-1.5,0.6-2.8,1.7-3.7c1.2-1.1,2.9-1.6,5-1.6
			c1.9,0,3.6,0.3,5.2,0.9c0.5,0.2,0.7,0.5,0.7,1c0,0.3-0.1,0.5-0.3,0.7c-0.2,0.2-0.4,0.4-0.6,0.4s-0.5-0.1-0.9-0.2
			c-1.1-0.4-2.4-0.6-3.9-0.6c-1.3,0-2.4,0.3-3.3,0.8c-0.9,0.5-1.3,1.3-1.3,2.2c0,1,0.6,1.7,1.7,2.2c0.5,0.2,1.1,0.4,1.8,0.6
			s1.3,0.3,2,0.5c0.7,0.2,1.4,0.4,2,0.6c0.7,0.2,1.2,0.5,1.8,0.9c1.1,0.8,1.7,2,1.7,3.6c0,1.5-0.6,2.7-1.8,3.6
			c-1.2,1-2.9,1.4-4.9,1.4c-2.2,0-4.3-0.4-6.2-1.2c-0.2-0.1-0.4-0.2-0.5-0.4c-0.1-0.2-0.2-0.4-0.2-0.7s0.1-0.5,0.3-0.7
			c0.2-0.2,0.4-0.3,0.7-0.3c0.3,0,0.6,0.1,0.9,0.2c0.4,0.2,1,0.4,1.8,0.6C192.4,476.4,193.4,476.5,194.5,476.5z"/>
		<path fill="#2BA7E7" d="M222.5,476.9c0.1,0.2,0.1,0.4,0.1,0.7c0,0.2-0.1,0.5-0.3,0.7s-0.5,0.3-1,0.3s-0.8-0.2-1-0.7l-1.7-4.1h-8.8
			l-1.7,4.1c-0.2,0.5-0.5,0.7-1,0.7c-0.5,0-0.8-0.1-1-0.3s-0.3-0.5-0.3-0.7c0-0.2,0-0.5,0.1-0.7l6.6-15.7c0.3-0.7,0.8-1.1,1.5-1.1
			h0.3c0.7,0,1.2,0.4,1.5,1.1L222.5,476.9z M217.7,471.7l-3.5-8.5l-3.5,8.5H217.7z"/>
		<path fill="#2BA7E7" d="M230.7,462.5v5.7h8c0.3,0,0.6,0.1,0.8,0.3s0.3,0.5,0.3,0.8c0,0.3-0.1,0.6-0.3,0.8s-0.5,0.3-0.8,0.3h-8v6.9
			c0,0.3-0.1,0.6-0.4,0.8s-0.5,0.3-0.8,0.3c-0.3,0-0.6-0.1-0.8-0.3s-0.3-0.5-0.3-0.8v-15.9c0-0.3,0.1-0.6,0.3-0.8
			c0.2-0.2,0.5-0.4,0.8-0.4h10.1c0.3,0,0.6,0.1,0.8,0.3c0.2,0.2,0.3,0.5,0.3,0.8c0,0.3-0.1,0.6-0.3,0.8c-0.2,0.2-0.5,0.3-0.8,0.3
			H230.7z"/>
		<path fill="#2BA7E7" d="M248,460.2c0.3,0,0.6,0.1,0.8,0.4c0.2,0.2,0.4,0.5,0.4,0.8v16c0,0.3-0.1,0.6-0.4,0.8s-0.5,0.3-0.8,0.3
			c-0.3,0-0.6-0.1-0.8-0.3s-0.3-0.5-0.3-0.8v-16c0-0.3,0.1-0.6,0.3-0.8C247.4,460.3,247.7,460.2,248,460.2z"/>
		<path fill="#2BA7E7" d="M264.9,460.1c2.7,0,4.9,0.9,6.6,2.6c1.6,1.7,2.5,4,2.5,6.7c-0.1,2.8-0.9,5-2.5,6.7
			c-1.7,1.8-3.9,2.6-6.6,2.6c-2.8,0-5-0.9-6.6-2.6c-1.6-1.7-2.5-4-2.5-6.7c0-2.7,0.9-5,2.5-6.7C259.9,461,262.1,460.1,264.9,460.1z
			 M264.9,476.5c2.1,0,3.8-0.7,5-2.1c1.2-1.3,1.8-3,1.8-5.1c0-2.1-0.6-3.8-1.8-5.1c-1.2-1.4-2.9-2.1-5-2.1c-2.1,0-3.8,0.7-5,2.1
			c-1.2,1.3-1.8,3-1.8,5.1c0,2.1,0.6,3.8,1.8,5.1C261.1,475.8,262.8,476.5,264.9,476.5z"/>
		<path fill="#2BA7E7" d="M286,476.5c3,0,4.6-1,4.6-3c0-0.8-0.6-1.5-1.7-2c-0.5-0.2-1.1-0.4-1.8-0.6c-0.7-0.2-1.3-0.3-2-0.5
			c-0.7-0.2-1.4-0.4-2-0.7c-0.7-0.2-1.3-0.6-1.8-0.9c-1.1-0.9-1.7-2-1.7-3.4c0-1.5,0.6-2.8,1.7-3.7c1.2-1.1,2.9-1.6,5-1.6
			c1.9,0,3.6,0.3,5.2,0.9c0.5,0.2,0.7,0.5,0.7,1c0,0.3-0.1,0.5-0.3,0.7c-0.2,0.2-0.4,0.4-0.6,0.4s-0.5-0.1-0.9-0.2
			c-1.1-0.4-2.4-0.6-3.9-0.6c-1.3,0-2.4,0.3-3.3,0.8c-0.9,0.5-1.3,1.3-1.3,2.2c0,1,0.6,1.7,1.7,2.2c0.5,0.2,1.1,0.4,1.8,0.6
			s1.3,0.3,2,0.5c0.7,0.2,1.4,0.4,2,0.6c0.7,0.2,1.2,0.5,1.8,0.9c1.1,0.8,1.7,2,1.7,3.6c0,1.5-0.6,2.7-1.8,3.6
			c-1.2,1-2.9,1.4-4.9,1.4c-2.2,0-4.3-0.4-6.2-1.2c-0.2-0.1-0.4-0.2-0.5-0.4c-0.1-0.2-0.2-0.4-0.2-0.7s0.1-0.5,0.3-0.7
			c0.2-0.2,0.4-0.3,0.7-0.3c0.3,0,0.6,0.1,0.9,0.2c0.4,0.2,1,0.4,1.8,0.6C283.9,476.4,284.9,476.5,286,476.5z"/>
		<path fill="#2BA7E7" d="M330.3,476.6c0.2,0.2,0.3,0.5,0.3,0.8c0,0.3-0.1,0.6-0.3,0.8c-0.2,0.2-0.5,0.3-0.8,0.3H319
			c-0.3,0-0.6-0.1-0.8-0.3s-0.3-0.5-0.3-0.8v-15.8c0-0.3,0.1-0.6,0.3-0.8c0.2-0.2,0.5-0.4,0.8-0.4h10.4c0.3,0,0.6,0.1,0.8,0.3
			c0.2,0.2,0.3,0.5,0.3,0.8c0,0.3-0.1,0.6-0.3,0.8c-0.2,0.2-0.5,0.3-0.8,0.3h-9.2v5.7h8.3c0.3,0,0.6,0.1,0.8,0.3
			c0.2,0.2,0.3,0.5,0.3,0.8c0,0.3-0.1,0.6-0.3,0.8c-0.2,0.2-0.5,0.3-0.8,0.3h-8.3v5.8h9.2C329.8,476.3,330,476.4,330.3,476.6z"/>
		<path fill="#2BA7E7" d="M343.5,460.3c2.9,0,5.2,1,6.9,2.9c0.8,0.8,1.3,1.8,1.7,2.9c0.4,1.1,0.6,2.2,0.6,3.3s-0.2,2.2-0.6,3.3
			c-0.4,1.1-0.9,2-1.7,2.9c-1.7,1.9-4,2.9-6.9,2.9h-5.2c-0.3,0-0.6-0.1-0.8-0.3s-0.3-0.5-0.3-0.8v-15.8c0-0.3,0.1-0.6,0.3-0.8
			c0.2-0.2,0.5-0.4,0.8-0.4H343.5z M343.2,476.3c2.1,0,3.9-0.6,5.2-1.9c1.3-1.3,1.9-2.9,1.9-5c0-2-0.6-3.7-1.9-5
			c-1.3-1.3-3.1-1.9-5.2-1.9h-3.7v13.7H343.2z"/>
		<path fill="#2BA7E7" d="M372.8,460.2c0.3,0,0.6,0.1,0.8,0.4c0.2,0.2,0.4,0.5,0.4,0.8v10.3c0,2.3-0.8,4.1-2.4,5.4
			c-1.4,1.1-3.1,1.7-5,1.7c-2,0-3.7-0.6-5-1.7c-1.6-1.3-2.4-3.1-2.4-5.4v-10.3c0-0.3,0.1-0.6,0.3-0.8c0.2-0.2,0.5-0.4,0.8-0.4
			c0.3,0,0.6,0.1,0.8,0.4c0.2,0.2,0.4,0.5,0.4,0.8v10.3c0,1.5,0.5,2.8,1.6,3.6c1,0.8,2.1,1.2,3.5,1.2c1.4,0,2.5-0.4,3.5-1.2
			c1.1-0.9,1.6-2.1,1.6-3.6v-10.3c0-0.3,0.1-0.6,0.3-0.8C372.1,460.3,372.4,460.2,372.8,460.2z"/>
		<path fill="#2BA7E7" d="M394.5,475.3c0.1-0.1,0.3-0.1,0.6-0.1s0.5,0.1,0.7,0.3c0.2,0.2,0.3,0.4,0.3,0.7c0,0.5-0.2,0.8-0.6,1
			c-0.8,0.5-1.7,0.8-2.6,1.1c-0.9,0.3-2,0.5-3.3,0.5c-1.3,0-2.5-0.2-3.6-0.6s-2.1-1-2.9-1.9c-1.7-1.7-2.6-4-2.6-6.8
			c0-2.9,0.9-5.1,2.6-6.8c1.7-1.7,3.8-2.5,6.5-2.5c1.3,0,2.4,0.2,3.3,0.5c0.9,0.3,1.6,0.6,2.1,0.9c0.5,0.3,0.8,0.5,0.9,0.7
			s0.2,0.4,0.2,0.6s-0.1,0.5-0.3,0.7c-0.2,0.2-0.4,0.3-0.7,0.3s-0.4,0-0.6-0.1c-0.7-0.4-1.4-0.7-2.1-0.9c-0.7-0.2-1.6-0.3-2.7-0.3
			c-1.1,0-2.1,0.2-2.9,0.5c-0.9,0.4-1.6,0.9-2.2,1.5c-1.2,1.3-1.7,2.9-1.7,5s0.6,3.8,1.7,5c1.3,1.4,3,2.1,5.2,2.1
			c1,0,1.9-0.1,2.6-0.3S393.8,475.6,394.5,475.3z"/>
		<path fill="#2BA7E7" d="M417,476.9c0.1,0.2,0.1,0.4,0.1,0.7c0,0.2-0.1,0.5-0.3,0.7s-0.5,0.3-1,0.3s-0.8-0.2-1-0.7l-1.7-4.1h-8.8
			l-1.7,4.1c-0.2,0.5-0.5,0.7-1,0.7c-0.5,0-0.8-0.1-1-0.3s-0.3-0.5-0.3-0.7c0-0.2,0-0.5,0.1-0.7l6.6-15.7c0.3-0.7,0.8-1.1,1.5-1.1
			h0.3c0.7,0,1.2,0.4,1.5,1.1L417,476.9z M412.3,471.7l-3.5-8.5l-3.5,8.5H412.3z"/>
		<path fill="#2BA7E7" d="M436,475.3c0.1-0.1,0.3-0.1,0.6-0.1c0.3,0,0.5,0.1,0.7,0.3c0.2,0.2,0.3,0.4,0.3,0.7c0,0.5-0.2,0.8-0.6,1
			c-0.8,0.5-1.7,0.8-2.6,1.1c-0.9,0.3-2,0.5-3.3,0.5c-1.3,0-2.5-0.2-3.6-0.6s-2.1-1-2.9-1.9c-1.7-1.7-2.6-4-2.6-6.8
			c0-2.9,0.9-5.1,2.6-6.8c1.7-1.7,3.8-2.5,6.5-2.5c1.3,0,2.4,0.2,3.3,0.5c0.9,0.3,1.6,0.6,2.1,0.9c0.5,0.3,0.8,0.5,0.9,0.7
			c0.1,0.2,0.2,0.4,0.2,0.6s-0.1,0.5-0.3,0.7c-0.2,0.2-0.4,0.3-0.7,0.3c-0.3,0-0.4,0-0.6-0.1c-0.7-0.4-1.4-0.7-2.1-0.9
			c-0.7-0.2-1.6-0.3-2.7-0.3c-1.1,0-2.1,0.2-2.9,0.5c-0.9,0.4-1.6,0.9-2.2,1.5c-1.2,1.3-1.7,2.9-1.7,5s0.6,3.8,1.7,5
			c1.3,1.4,3,2.1,5.2,2.1c1,0,1.9-0.1,2.6-0.3C434.6,475.9,435.3,475.6,436,475.3z"/>
		<path fill="#2BA7E7" d="M444.9,460.2c0.3,0,0.6,0.1,0.8,0.4c0.2,0.2,0.4,0.5,0.4,0.8v16c0,0.3-0.1,0.6-0.4,0.8s-0.5,0.3-0.8,0.3
			c-0.3,0-0.6-0.1-0.8-0.3c-0.2-0.2-0.3-0.5-0.3-0.8v-16c0-0.3,0.1-0.6,0.3-0.8C444.2,460.3,444.5,460.2,444.9,460.2z"/>
		<path fill="#2BA7E7" d="M461.7,460.1c2.7,0,4.9,0.9,6.6,2.6c1.6,1.7,2.5,4,2.5,6.7c-0.1,2.8-0.9,5-2.5,6.7
			c-1.7,1.8-3.9,2.6-6.6,2.6c-2.8,0-5-0.9-6.6-2.6c-1.6-1.7-2.5-4-2.5-6.7c0-2.7,0.9-5,2.5-6.7C456.8,461,459,460.1,461.7,460.1z
			 M461.7,476.5c2.1,0,3.8-0.7,5-2.1c1.2-1.3,1.8-3,1.8-5.1c0-2.1-0.6-3.8-1.8-5.1c-1.2-1.4-2.9-2.1-5-2.1c-2.1,0-3.8,0.7-5,2.1
			c-1.2,1.3-1.8,3-1.8,5.1c0,2.1,0.6,3.8,1.8,5.1C457.9,475.8,459.6,476.5,461.7,476.5z"/>
		<path fill="#2BA7E7" d="M492,460.2c0.3,0,0.6,0.1,0.8,0.4c0.2,0.2,0.4,0.5,0.4,0.8v15.5c0,0.5-0.2,0.9-0.5,1.2
			c-0.3,0.3-0.7,0.5-1.2,0.5h-0.3c-0.6,0-1-0.2-1.4-0.7l-10.1-14.5v14.1c0,0.3-0.1,0.6-0.4,0.8s-0.5,0.3-0.8,0.3
			c-0.3,0-0.6-0.1-0.8-0.3c-0.2-0.2-0.3-0.5-0.3-0.8v-15.5c0-0.5,0.2-0.9,0.5-1.2c0.3-0.3,0.7-0.5,1.2-0.5h0.3c0.5,0,1,0.3,1.4,0.8
			l10,14.5v-14c0-0.3,0.1-0.6,0.3-0.8C491.4,460.3,491.7,460.2,492,460.2z"/>
		<path fill="#2BA7E7" d="M515.7,476.9c0.1,0.2,0.1,0.4,0.1,0.7c0,0.2-0.1,0.5-0.3,0.7s-0.5,0.3-1,0.3c-0.5,0-0.8-0.2-1-0.7
			l-1.7-4.1H503l-1.7,4.1c-0.2,0.5-0.5,0.7-1,0.7c-0.5,0-0.8-0.1-1-0.3s-0.3-0.5-0.3-0.7c0-0.2,0-0.5,0.1-0.7l6.6-15.7
			c0.3-0.7,0.8-1.1,1.5-1.1h0.3c0.7,0,1.2,0.4,1.5,1.1L515.7,476.9z M510.9,471.7l-3.5-8.5l-3.5,8.5H510.9z"/>
		<path fill="#2BA7E7" d="M522.7,460.2c0.3,0,0.6,0.1,0.8,0.4c0.2,0.2,0.4,0.5,0.4,0.8v16c0,0.3-0.1,0.6-0.4,0.8s-0.5,0.3-0.8,0.3
			c-0.3,0-0.6-0.1-0.8-0.3c-0.2-0.2-0.3-0.5-0.3-0.8v-16c0-0.3,0.1-0.6,0.3-0.8C522.1,460.3,522.4,460.2,522.7,460.2z"/>
		<path fill="#2BA7E7" d="M537.1,476.5c3,0,4.5-1,4.5-3c0-0.8-0.6-1.5-1.7-2c-0.5-0.2-1.1-0.4-1.8-0.6c-0.7-0.2-1.3-0.3-2-0.5
			c-0.7-0.2-1.4-0.4-2-0.7c-0.7-0.2-1.3-0.6-1.8-0.9c-1.1-0.9-1.7-2-1.7-3.4c0-1.5,0.6-2.8,1.7-3.7c1.2-1.1,2.9-1.6,5-1.6
			c1.9,0,3.6,0.3,5.2,0.9c0.5,0.2,0.7,0.5,0.7,1c0,0.3-0.1,0.5-0.3,0.7c-0.2,0.2-0.4,0.4-0.6,0.4c-0.2,0-0.5-0.1-0.9-0.2
			c-1.1-0.4-2.4-0.6-3.9-0.6c-1.3,0-2.4,0.3-3.3,0.8c-0.9,0.5-1.3,1.3-1.3,2.2c0,1,0.6,1.7,1.7,2.2c0.5,0.2,1.1,0.4,1.8,0.6
			c0.7,0.2,1.3,0.3,2,0.5c0.7,0.2,1.4,0.4,2,0.6c0.7,0.2,1.2,0.5,1.8,0.9c1.1,0.8,1.7,2,1.7,3.6c0,1.5-0.6,2.7-1.8,3.6
			c-1.2,1-2.9,1.4-4.9,1.4c-2.2,0-4.3-0.4-6.2-1.2c-0.2-0.1-0.4-0.2-0.5-0.4c-0.1-0.2-0.2-0.4-0.2-0.7s0.1-0.5,0.3-0.7
			c0.2-0.2,0.4-0.3,0.7-0.3c0.3,0,0.6,0.1,0.9,0.2c0.4,0.2,1,0.4,1.8,0.6C535,476.4,535.9,476.5,537.1,476.5z"/>
		<path fill="#2BA7E7" d="M575.3,460.3c2.9,0,5.2,1,6.9,2.9c0.8,0.8,1.3,1.8,1.7,2.9c0.4,1.1,0.6,2.2,0.6,3.3s-0.2,2.2-0.6,3.3
			c-0.4,1.1-0.9,2-1.7,2.9c-1.7,1.9-4,2.9-6.9,2.9h-5.2c-0.3,0-0.6-0.1-0.8-0.3c-0.2-0.2-0.3-0.5-0.3-0.8v-15.8
			c0-0.3,0.1-0.6,0.3-0.8c0.2-0.2,0.5-0.4,0.8-0.4H575.3z M575,476.3c2.1,0,3.9-0.6,5.2-1.9c1.3-1.3,1.9-2.9,1.9-5
			c0-2-0.6-3.7-1.9-5c-1.3-1.3-3.1-1.9-5.2-1.9h-3.7v13.7H575z"/>
		<path fill="#2BA7E7" d="M592.2,460.2c0.3,0,0.6,0.1,0.8,0.4c0.2,0.2,0.4,0.5,0.4,0.8v16c0,0.3-0.1,0.6-0.4,0.8s-0.5,0.3-0.8,0.3
			c-0.3,0-0.6-0.1-0.8-0.3c-0.2-0.2-0.3-0.5-0.3-0.8v-16c0-0.3,0.1-0.6,0.3-0.8C591.6,460.3,591.9,460.2,592.2,460.2z"/>
		<path fill="#2BA7E7" d="M609.4,476.5c1.6,0,3.1-0.4,4.5-1.1v-4.7h-4.3c-0.3,0-0.5-0.1-0.8-0.3s-0.3-0.5-0.3-0.8s0.1-0.5,0.3-0.8
			c0.2-0.2,0.5-0.3,0.8-0.3h5.1c0.3,0,0.6,0.1,0.9,0.4s0.4,0.5,0.4,0.9v5.9c0,0.4-0.1,0.7-0.3,1c-0.2,0.3-0.4,0.5-0.7,0.6
			c-1.9,1-3.9,1.5-6,1.5c-2.7,0-4.9-0.9-6.6-2.6c-1.7-1.8-2.5-4-2.5-6.7c0-2.8,0.9-5,2.6-6.8c1.7-1.7,3.8-2.5,6.4-2.5
			c1.5,0,2.7,0.2,3.7,0.5c1,0.4,1.9,0.8,2.7,1.3c0.3,0.2,0.5,0.5,0.5,0.8s-0.1,0.6-0.3,0.9c-0.2,0.2-0.4,0.3-0.7,0.3s-0.5,0-0.7-0.1
			c-1.7-1-3.4-1.5-5.1-1.5c-2,0-3.7,0.6-4.9,1.8c-1.3,1.3-2,3-2,5.3c0,2,0.6,3.7,1.9,5C605.5,475.8,607.2,476.5,609.4,476.5z"/>
		<path fill="#2BA7E7" d="M624.1,460.2c0.3,0,0.6,0.1,0.8,0.4c0.2,0.2,0.4,0.5,0.4,0.8v16c0,0.3-0.1,0.6-0.4,0.8s-0.5,0.3-0.8,0.3
			c-0.3,0-0.6-0.1-0.8-0.3c-0.2-0.2-0.3-0.5-0.3-0.8v-16c0-0.3,0.1-0.6,0.3-0.8C623.5,460.3,623.8,460.2,624.1,460.2z"/>
		<path fill="#2BA7E7" d="M645.7,460.7c0.2,0.2,0.3,0.5,0.3,0.8c0,0.3-0.1,0.6-0.3,0.8c-0.2,0.2-0.5,0.3-0.8,0.3h-5.3v14.9
			c0,0.3-0.1,0.6-0.4,0.8c-0.2,0.2-0.5,0.3-0.8,0.3s-0.6-0.1-0.8-0.3s-0.3-0.5-0.3-0.8v-14.9h-5.3c-0.3,0-0.6-0.1-0.8-0.3
			s-0.3-0.5-0.3-0.8c0-0.3,0.1-0.6,0.3-0.8c0.2-0.2,0.5-0.3,0.8-0.3h12.9C645.2,460.3,645.4,460.4,645.7,460.7z"/>
		<path fill="#2BA7E7" d="M664.7,476.9c0.1,0.2,0.1,0.4,0.1,0.7c0,0.2-0.1,0.5-0.3,0.7s-0.5,0.3-1,0.3c-0.5,0-0.8-0.2-1-0.7
			l-1.7-4.1H652l-1.7,4.1c-0.2,0.5-0.5,0.7-1,0.7c-0.5,0-0.8-0.1-1-0.3s-0.3-0.5-0.3-0.7c0-0.2,0-0.5,0.1-0.7l6.6-15.7
			c0.3-0.7,0.8-1.1,1.5-1.1h0.3c0.7,0,1.2,0.4,1.5,1.1L664.7,476.9z M659.9,471.7l-3.5-8.5l-3.5,8.5H659.9z"/>
		<path fill="#2BA7E7" d="M671.8,460.2c0.3,0,0.6,0.1,0.8,0.4c0.2,0.2,0.4,0.5,0.4,0.8v16c0,0.3-0.1,0.6-0.4,0.8s-0.5,0.3-0.8,0.3
			c-0.3,0-0.6-0.1-0.8-0.3c-0.2-0.2-0.3-0.5-0.3-0.8v-16c0-0.3,0.1-0.6,0.3-0.8C671.1,460.3,671.4,460.2,671.8,460.2z"/>
		<path fill="#2BA7E7" d="M686.1,476.5c3,0,4.5-1,4.5-3c0-0.8-0.6-1.5-1.7-2c-0.5-0.2-1.1-0.4-1.8-0.6c-0.7-0.2-1.3-0.3-2-0.5
			c-0.7-0.2-1.4-0.4-2-0.7c-0.7-0.2-1.3-0.6-1.8-0.9c-1.1-0.9-1.7-2-1.7-3.4c0-1.5,0.6-2.8,1.7-3.7c1.2-1.1,2.9-1.6,5-1.6
			c1.9,0,3.6,0.3,5.2,0.9c0.5,0.2,0.7,0.5,0.7,1c0,0.3-0.1,0.5-0.3,0.7c-0.2,0.2-0.4,0.4-0.6,0.4c-0.2,0-0.5-0.1-0.9-0.2
			c-1.1-0.4-2.4-0.6-3.9-0.6c-1.3,0-2.4,0.3-3.3,0.8c-0.9,0.5-1.3,1.3-1.3,2.2c0,1,0.6,1.7,1.7,2.2c0.5,0.2,1.1,0.4,1.8,0.6
			c0.7,0.2,1.3,0.3,2,0.5c0.7,0.2,1.4,0.4,2,0.6c0.7,0.2,1.2,0.5,1.8,0.9c1.1,0.8,1.7,2,1.7,3.6c0,1.5-0.6,2.7-1.8,3.6
			c-1.2,1-2.9,1.4-4.9,1.4c-2.2,0-4.3-0.4-6.2-1.2c-0.2-0.1-0.4-0.2-0.5-0.4c-0.1-0.2-0.2-0.4-0.2-0.7s0.1-0.5,0.3-0.7
			c0.2-0.2,0.4-0.3,0.7-0.3c0.3,0,0.6,0.1,0.9,0.2c0.4,0.2,1,0.4,1.8,0.6C684,476.4,685,476.5,686.1,476.5z"/>
	</g>
</g>
</svg>
