<?xml version="1.0" encoding="utf-8"?>
<!-- Generator: Adobe Illustrator 19.1.0, SVG Export Plug-In . SVG Version: 6.00 Build 0)  -->
<svg version="1.0" id="Camada_1" xmlns="http://www.w3.org/2000/svg" xmlns:xlink="http://www.w3.org/1999/xlink" x="0px" y="0px"
	 viewBox="0 0 841.9 595.3" enable-background="new 0 0 841.9 595.3" xml:space="preserve">
<g>
	<path fill="#F7A823" d="M171.8,178.9c-1.8-6.8,2.3-13.8,9.1-15.5c6.8-1.8,13.8,2.3,15.5,9.1c1.8,6.8-2.3,13.8-9.1,15.5
		C180.5,189.7,173.6,185.7,171.8,178.9"/>
	<path fill="#F7A823" d="M659.4,187.9c-6.8-1.8-10.9-8.7-9.1-15.5c1.8-6.8,8.7-10.9,15.5-9.1c6.8,1.8,10.9,8.7,9.1,15.5
		C673.1,185.7,666.2,189.7,659.4,187.9"/>
	<path fill="#F7A823" d="M222.6,304.8c1-2.6,3.1-3.5,5.7-3.9c11.9-1.7,23.7-3.5,35.6-5.3c13.1-2,23.5,2.5,30.8,13.6
		c6.6,9.8,8.7,20.7,7.7,32.3c-0.5,5.9-1.9,11.6-4.5,17c-2.4,5.1-5.7,9.3-9.9,12.9c-5.4,4.6-11.9,6.2-18.9,6
		c-4.5-0.1-9.1-0.8-13.6-1.3c-7.2-0.8-14.4-1.6-21.5-2.4c-2.2-0.3-4.5-0.5-6.7-0.7c-2.4-0.2-4.1-1.4-4.8-3.8V304.8z M241.5,336.7
		L241.5,336.7c0.1,5.3,0.1,10.5,0,15.8c0,1.1,0.2,1.9,1.5,2c8.1,0.3,16.2,0.7,24.3,0.8c4.1,0.1,8-1.3,10.9-4.4
		c4.4-4.5,5.9-10.1,5.3-16.3c-1-10.8-8.1-18-18.1-17.3c-7.3,0.5-14.6,1.2-22,1.7c-1.6,0.1-2.1,0.9-2.1,2.4
		C241.6,326.5,241.5,331.6,241.5,336.7"/>
	<path fill="#F7A823" d="M384.9,286.8c0.2,8.8,0.3,17.4,0.5,26.3c-0.8,0-1.4,0-2,0c-16.7,0.3-33.5,0.7-50.2,1
		c-2.6,0.1-2.9,0.4-2.9,3.1c0,3.1,0,6.3,0,9.6c0.8,0,1.4,0,2,0c17-0.2,33.9-0.4,50.9-0.6c2.1,0,2.2,0,2.2,2.1
		c0.1,4.9,0.1,9.9,0.2,14.8c0,1.5-0.5,1.8-1.8,1.8c-17-0.1-33.9-0.2-50.9-0.2c-0.7,0-1.4,0-2,0c0,4.1-0.1,8,0,11.9
		c0,1.5,1.3,1.6,2.5,1.6c8.4,0.2,16.7,0.4,25.1,0.5c8.7,0.1,17.4,0.2,26.1,0.3c0.9,0,1.5,0,1.5,1.2c0.1,7.8,0.2,15.7,0.3,23.5
		c0,0.3-0.1,0.5-0.1,0.9c-0.5,0-0.9,0.1-1.3,0.1c-13.5-0.5-26.9-0.9-40.4-1.5c-7.9-0.3-15.7-0.8-23.6-1.3c-3.6-0.2-6.3-2.1-7.6-5.5
		c-0.7-1.9-1.3-4-1.3-6.1c-0.3-16.3-0.5-32.5-0.7-48.8c-0.1-6.1-0.3-12.2-0.2-18.3c0-2.2,0.3-4.5,0.9-6.6c1-3.9,3.9-6.1,7.8-6.5
		c6.7-0.6,13.4-1.1,20.1-1.4c13.7-0.6,27.4-1.1,41.2-1.6C382.2,286.8,383.5,286.8,384.9,286.8"/>
	<path fill="#F7A823" d="M394.4,335.4c-0.3-13.8-0.5-27.7-0.8-41.5c0-0.7,0-1.4,0-2.1c0.3-3.7,1.7-5.1,5.4-5
		c13.2,0.2,26.4,0.3,39.6,0.8c9.3,0.3,16.7,4.9,22.7,11.9c10.3,12.2,14.3,26.4,13.1,42.1c-0.8,10.5-4,20.2-10.3,28.7
		c-4.4,5.9-9.6,10.9-16.9,13c-2.3,0.6-4.7,1.2-7.1,1.3c-13.2,0.2-26.5,0.3-39.7,0.4c-3.2,0-4.7-1.3-5.2-4.5
		c-0.2-1.2-0.2-2.3-0.2-3.5C394.7,363,394.5,349.2,394.4,335.4 M438.2,358.1c5.6-0.1,10-2.6,13.1-7.2c5-7.6,5.4-15.8,2.6-24.2
		c-2.5-7.6-8.1-13.7-18.5-13.5c-6.7,0.1-13.4-0.1-20.1-0.2c-1.9,0-2.2,0.3-2.2,2.2c0,2.8,0.4,29.8,0.6,40.5c0,2.3,0.2,2.5,2.5,2.5
		C419.9,358.2,434.6,358.2,438.2,358.1"/>
	<path fill="#F7A823" d="M587.3,333.7c0,0.6,0.1,1.1,0.1,1.5c0,10.8,0,21.6,0,32.4c0,3.5-1.4,5.1-4.7,5.5
		c-10.8,1.4-21.6,2.7-32.3,4.3c-8.9,1.3-16.7-0.7-23.7-6.1c-4.8-3.7-8.1-8.5-10.4-13.9c-5.4-12.5-6.2-25.3-2-38.3
		c2.3-7.1,6.3-13.3,12.3-17.9c5.6-4.3,12.2-6,19.1-5.2c13.6,1.7,27.2,3.7,40.7,5.6c0.3,0,0.5,0.2,0.8,0.2v18.6
		c-3.5-0.3-34.1-2.5-36.4-2.8c-11-1.3-18.7,4.6-20,15.6c-0.9,8.2,1.4,15.2,8.5,20.1c2.5,1.8,5.3,2.6,8.3,2.5
		c6.4-0.2,12.8-0.6,19.1-0.9c1.6-0.1,1.8-1,1.8-2.3c0-5.9,0-11.8-0.1-17.7c0-0.6,0-1.3,0-2.1C574.9,333.1,581,333.4,587.3,333.7"/>
	<path fill="#F7A823" d="M503.3,381.8c-6.5,0.4-12.6,0.7-19.1,1.1c-0.4-31.1-0.9-61.9-1.3-93.1c6.4,0.5,12.8,0.9,19.2,1.4
		C502.6,321.4,503,351.4,503.3,381.8"/>
</g>
<g>
	<path fill="#EC6608" d="M534.1,324.2h-21.3c-2.5,11.2-1.3,22.3,3.4,33.1c2.4,5.4,5.7,10.2,10.4,13.9c7,5.4,14.8,7.4,23.7,6.1
		c10.7-1.6,21.5-2.9,32.3-4.3c3.3-0.4,4.7-2,4.7-5.5c0-10.8,0-21.6,0-32.4c0-0.4,0-0.8-0.1-1.5c-6.3-0.3-12.4-0.5-18.7-0.8
		c0,0.9,0,1.5,0,2.2c0,5.9,0,11.8,0.1,17.7c0,1.3-0.3,2.2-1.8,2.3c-6.4,0.3-12.7,0.7-19.1,0.9c-3,0.1-5.8-0.7-8.3-2.5
		c-7-4.9-9.4-11.9-8.5-20.1C531.3,329.7,532.4,326.7,534.1,324.2"/>
	<path fill="#EC6608" d="M227.4,372.9c2.2,0.2,4.5,0.5,6.7,0.7c7.2,0.8,14.4,1.6,21.5,2.4c4.5,0.5,9,1.2,13.6,1.3
		c6.9,0.2,13.4-1.4,18.9-6c4.2-3.6,7.6-7.8,9.9-12.9c2.5-5.4,4-11.1,4.5-17c0.5-5.9,0.2-11.7-1.2-17.2h-21.2
		c1.9,2.8,3.1,6.3,3.5,10.4c0.6,6.1-1,11.7-5.3,16.3c-2.9,3-6.8,4.4-10.9,4.4c-8.1-0.1-16.2-0.5-24.3-0.8c-1.3,0-1.5-0.9-1.5-2
		c0-5.3,0-10.5,0-15.8h-0.1c0-4.2,0-8.3,0-12.5h-18.9v44.9C223.3,371.5,225,372.7,227.4,372.9"/>
	<path fill="#EC6608" d="M394.4,335.4c0.2,13.8,0.4,27.7,0.6,41.5c0,1.2,0.1,2.4,0.2,3.5c0.5,3.2,2,4.5,5.2,4.5
		c13.2-0.1,26.5-0.1,39.7-0.4c2.4,0,4.8-0.6,7.1-1.3c7.3-2.1,12.5-7.1,16.9-13c6.3-8.5,9.5-18.2,10.3-28.7c0.4-6,0.1-11.8-1-17.3
		H453c0.4,0.8,0.7,1.6,1,2.4c2.8,8.4,2.4,16.6-2.6,24.2c-3.1,4.7-7.5,7.1-13.1,7.2c-3.6,0.1-18.3,0.1-22,0.1c-2.3,0-2.5-0.2-2.5-2.5
		c-0.1-7.2-0.4-21.9-0.5-31.5h-19C394.2,327.9,394.3,331.7,394.4,335.4"/>
	<path fill="#EC6608" d="M484.3,382.9c6.4-0.4,12.6-0.7,19.1-1.1c-0.2-19.3-0.5-38.4-0.7-57.6h-19.2
		C483.7,343.8,484,363.3,484.3,382.9"/>
	<path fill="#EC6608" d="M312.1,370.1c0,2,0.6,4.2,1.3,6.1c1.3,3.4,4,5.3,7.6,5.5c7.9,0.5,15.7,1,23.6,1.3c13.4,0.6,26.9,1,40.4,1.5
		c0.4,0,0.8-0.1,1.3-0.1c0-0.3,0.1-0.6,0.1-0.9c-0.1-7.8-0.2-15.7-0.3-23.5c0-1.2-0.7-1.2-1.5-1.2c-8.7-0.1-17.4-0.1-26.1-0.3
		c-8.4-0.1-16.7-0.3-25.1-0.5c-1.2,0-2.5-0.1-2.5-1.6c-0.1-3.9,0-7.8,0-11.9c0.7,0,1.3,0,2,0c17,0.1,33.9,0.1,50.9,0.2
		c1.4,0,1.9-0.3,1.8-1.8c-0.2-4.9-0.2-9.9-0.2-14.8c0-2.1-0.1-2.1-2.2-2.1c-17,0.2-33.9,0.4-50.9,0.6c-0.6,0-1.1,0-2,0
		c0-0.9,0-1.7,0-2.6h-18.9C311.6,339.5,311.8,354.8,312.1,370.1"/>
</g>
<path fill="#E94287" d="M613.4,170.6c-4.5-1-8.9-2-13.4-2.9c-4.5-0.9-9-1.8-13.5-2.6c-4.5-0.8-9-1.6-13.6-2.3
	c-4.5-0.7-9.1-1.4-13.6-2c-4.6-0.6-9.1-1.2-13.7-1.7c-4.6-0.5-9.1-1-13.7-1.4c-3.8-0.4-7.6-0.7-11.4-1c-0.9-2.7-1.7-5.5-2.5-8.3
	c-1-3.5-1.9-7-2.7-10.5c-0.3-1-1-2-2-2.4c-1.8-0.8-3.9,0.1-4.6,1.8l0,0L494.6,170l-12.7-50.9c-0.3-1.3-1.4-2.5-2.9-2.8
	c-2-0.4-4,0.9-4.5,2.9l0,0c-2.4,11.5-4.9,23.1-7.6,34.5c-9.3-0.2-18.6-0.4-27.9-0.5c-10.4-0.1-20.7,0-31.1,0.1l-15.5,0.3
	c-5.2,0.1-10.4,0.2-15.5,0.4c-10.4,0.4-20.7,0.8-31,1.3c-5.2,0.3-10.3,0.5-15.5,0.9l-15.5,1c-5.2,0.4-10.3,0.7-15.5,1.2
	c-5.2,0.4-10.3,0.9-15.5,1.4c-5.2,0.5-10.3,1-15.5,1.6c-5.1,0.5-10.3,1.2-15.4,1.8c-5.1,0.7-10.3,1.4-15.4,2.2
	c-5.1,0.8-10.2,1.7-15.3,2.6c5.2-0.4,10.3-0.8,15.5-1.1c5.1-0.4,10.3-0.6,15.5-0.9c5.2-0.3,10.3-0.6,15.5-0.8l15.5-0.7
	c10.3-0.4,20.6-0.7,31-1.1l31-0.8c10.3-0.3,20.6-0.5,31-0.6l15.5-0.3l15.5-0.2l31-0.1c10.3,0,20.6,0.1,30.9,0.3l0,0
	c1.8,0,3.5-1.2,3.9-3.1c1.5-6.3,2.8-12.6,4.1-19l0.6-2.9l11.5,45.3l0,0c0.3,1,1,2,2.1,2.4c1.8,0.8,3.9-0.1,4.7-1.9l14.2-33.3
	c0.1,0.3,0.2,0.6,0.2,0.8c1,3.6,2.1,7.1,3.4,10.7l0,0.1c0.4,1.2,1.6,2.1,3,2.2c4.6,0.2,9.1,0.4,13.7,0.7c4.6,0.3,9.1,0.5,13.7,0.9
	c4.6,0.3,9.1,0.6,13.7,1c4.5,0.4,9.1,0.8,13.6,1.2c4.5,0.5,9.1,0.9,13.6,1.4c4.5,0.5,9.1,1.1,13.6,1.6c4.5,0.6,9.1,1.2,13.6,1.8
	c4.5,0.6,9.1,1.3,13.6,2C622.3,172.8,617.9,171.7,613.4,170.6"/>
<g>
	<path fill="#009DDF" d="M655.4,268.6c-28.9-6.7-124.4-26.8-235.7-26.8c-110.8,0-200.7,19.9-228.4,26.7c-5.2,1.3-8.8,5.9-8.8,11.3
		V390c0,5.4,3.7,10.1,9,11.3c26.1,6.1,107.7,22.6,228.2,22.6c121.3,0,208.2-16.7,235.6-22.7c5.3-1.2,9.1-5.9,9.1-11.4v-110
		C664.4,274.5,660.7,269.8,655.4,268.6 M604.3,382.8c0,4.8-3.3,8.9-8,10c-24,5.3-69.9,19.9-176.2,19.9
		c-105.6,0-181.3-14.5-204.2-19.8c-4.6-1.1-7.9-5.2-7.9-9.9v-96.6c0-4.7,3.2-8.8,7.7-9.9c24.3-6,107.2-23.4,204.3-23.4
		c97.6,0,150.9,17.6,176.3,23.5c4.6,1.1,7.9,5.2,7.9,9.9V382.8z M634.4,344.7c-6.5,0-11.8-5.3-11.8-11.8s5.3-11.8,11.8-11.8
		c6.5,0,11.8,5.3,11.8,11.8S640.9,344.7,634.4,344.7"/>
	<path fill="#009DDF" d="M226.1,209.4c-1.8-6.1-15.3-7.6-31-3.7c-2.9-5.5-4.9-9.6-4.9-9.6c-0.2-0.5-0.7-0.7-1.3-0.6
		c-0.5,0.1-0.9,0.5-0.9,1.1c0,0,0.1,4.6,0.1,10.8c-15.7,3.7-27,11.3-25.7,17.6c1.1,5.5,11.4,8.3,24.5,7.3c-1.2,9.4-5,24.4-5.2,26.8
		c0,0.5,0.1,1,0.3,1.5c0.5,1,1.7,1.7,2.8,1.5c0.5-0.1,10.3-2.7,19.2-5.1c9-2.1,18.9-4.2,19.4-4.4c1.1-0.3,1.8-1.4,1.8-2.6
		c0-0.5-0.2-1.1-0.4-1.5c-1.3-2.1-11.6-13.6-17-21.3C219.9,222,227.7,214.8,226.1,209.4 M187.4,229.7c-9.7,0.5-17.1-1.6-17.9-5.7
		c-0.9-4.7,7.2-10.3,18.8-13.3C188.2,216.8,187.9,223.9,187.4,229.7 M206.2,225c-3.2-4.9-6.7-11-9.6-16.4
		c11.6-2.7,21.5-1.5,22.8,3.1C220.7,215.7,215.1,221,206.2,225"/>
	<path fill="#009DDF" d="M639,227.3c-5.4,7.7-15.7,19.3-17,21.3c-0.3,0.4-0.4,0.9-0.4,1.5c0,1.2,0.7,2.3,1.8,2.6
		c0.5,0.2,10.4,2.3,19.4,4.4c8.9,2.3,18.7,5,19.2,5.1c1.1,0.2,2.2-0.5,2.8-1.5c0.3-0.5,0.4-1,0.3-1.5c-0.2-2.4-4-17.4-5.2-26.8
		c13.2,1,23.5-1.8,24.5-7.3c1.2-6.3-10.1-13.9-25.7-17.6c0-6.2,0.1-10.8,0.1-10.8c0-0.5-0.3-1-0.9-1.1c-0.5-0.1-1,0.1-1.3,0.6
		c0,0-2,4.1-4.9,9.6c-15.6-3.9-29.1-2.5-31,3.7C619,214.8,626.8,222,639,227.3 M658.5,210.7c11.5,3,19.7,8.6,18.8,13.3
		c-0.8,4.1-8.2,6.2-17.9,5.7C658.8,223.9,658.6,216.8,658.5,210.7 M627.2,211.7c1.4-4.6,11.2-5.8,22.8-3.1
		c-2.9,5.4-6.4,11.6-9.6,16.4C631.6,221,626.1,215.7,627.2,211.7"/>
	<g>
		<path fill="#009DDF" d="M157.1,459.3c2.9,0,5.2,1,6.9,2.9c0.8,0.8,1.3,1.8,1.7,2.9c0.4,1.1,0.6,2.2,0.6,3.3s-0.2,2.2-0.6,3.3
			c-0.4,1.1-0.9,2-1.7,2.9c-1.7,1.9-4,2.9-6.9,2.9h-5.2c-0.3,0-0.6-0.1-0.8-0.3s-0.3-0.5-0.3-0.8v-15.8c0-0.3,0.1-0.6,0.3-0.8
			c0.2-0.2,0.5-0.4,0.8-0.4H157.1z M156.9,475.3c2.1,0,3.9-0.6,5.2-1.9c1.3-1.3,1.9-2.9,1.9-5c0-2-0.6-3.7-1.9-5
			c-1.3-1.3-3.1-1.9-5.2-1.9h-3.7v13.7H156.9z"/>
		<path fill="#009DDF" d="M185.2,475.6c0.2,0.2,0.3,0.5,0.3,0.8c0,0.3-0.1,0.6-0.3,0.8c-0.2,0.2-0.5,0.3-0.8,0.3H174
			c-0.3,0-0.6-0.1-0.8-0.3s-0.3-0.5-0.3-0.8v-15.8c0-0.3,0.1-0.6,0.3-0.8c0.2-0.2,0.5-0.4,0.8-0.4h10.4c0.3,0,0.6,0.1,0.8,0.3
			c0.2,0.2,0.3,0.5,0.3,0.8c0,0.3-0.1,0.6-0.3,0.8c-0.2,0.2-0.5,0.3-0.8,0.3h-9.2v5.7h8.3c0.3,0,0.6,0.1,0.8,0.3
			c0.2,0.2,0.3,0.5,0.3,0.8c0,0.3-0.1,0.6-0.3,0.8c-0.2,0.2-0.5,0.3-0.8,0.3h-8.3v5.8h9.2C184.8,475.3,185,475.4,185.2,475.6z"/>
		<path fill="#009DDF" d="M197.5,475.5c3,0,4.6-1,4.6-3c0-0.8-0.6-1.5-1.7-2c-0.5-0.2-1.1-0.4-1.8-0.6c-0.7-0.2-1.3-0.3-2-0.5
			c-0.7-0.2-1.4-0.4-2-0.7c-0.7-0.2-1.3-0.6-1.8-0.9c-1.1-0.9-1.7-2-1.7-3.4c0-1.5,0.6-2.8,1.7-3.7c1.2-1.1,2.9-1.6,5-1.6
			c1.9,0,3.6,0.3,5.2,0.9c0.5,0.2,0.7,0.5,0.7,1c0,0.3-0.1,0.5-0.3,0.7c-0.2,0.2-0.4,0.4-0.6,0.4s-0.5-0.1-0.9-0.2
			c-1.1-0.4-2.4-0.6-3.9-0.6c-1.3,0-2.4,0.3-3.3,0.8c-0.9,0.5-1.3,1.3-1.3,2.2c0,1,0.6,1.7,1.7,2.2c0.5,0.2,1.1,0.4,1.8,0.6
			s1.3,0.3,2,0.5c0.7,0.2,1.4,0.4,2,0.6c0.7,0.2,1.2,0.5,1.8,0.9c1.1,0.8,1.7,2,1.7,3.6c0,1.5-0.6,2.7-1.8,3.6
			c-1.2,1-2.9,1.4-4.9,1.4c-2.2,0-4.3-0.4-6.2-1.2c-0.2-0.1-0.4-0.2-0.5-0.4c-0.1-0.2-0.2-0.4-0.2-0.7s0.1-0.5,0.3-0.7
			c0.2-0.2,0.4-0.3,0.7-0.3c0.3,0,0.6,0.1,0.9,0.2c0.4,0.2,1,0.4,1.8,0.6C195.4,475.4,196.4,475.5,197.5,475.5z"/>
		<path fill="#009DDF" d="M225.5,475.9c0.1,0.2,0.1,0.4,0.1,0.7c0,0.2-0.1,0.5-0.3,0.7s-0.5,0.3-1,0.3s-0.8-0.2-1-0.7l-1.7-4.1h-8.8
			l-1.7,4.1c-0.2,0.5-0.5,0.7-1,0.7c-0.5,0-0.8-0.1-1-0.3s-0.3-0.5-0.3-0.7c0-0.2,0-0.5,0.1-0.7l6.6-15.7c0.3-0.7,0.8-1.1,1.5-1.1
			h0.3c0.7,0,1.2,0.4,1.5,1.1L225.5,475.9z M220.7,470.7l-3.5-8.5l-3.5,8.5H220.7z"/>
		<path fill="#009DDF" d="M233.7,461.5v5.7h8c0.3,0,0.6,0.1,0.8,0.3s0.3,0.5,0.3,0.8c0,0.3-0.1,0.6-0.3,0.8s-0.5,0.3-0.8,0.3h-8v6.9
			c0,0.3-0.1,0.6-0.4,0.8s-0.5,0.3-0.8,0.3c-0.3,0-0.6-0.1-0.8-0.3s-0.3-0.5-0.3-0.8v-15.9c0-0.3,0.1-0.6,0.3-0.8
			c0.2-0.2,0.5-0.4,0.8-0.4h10.1c0.3,0,0.6,0.1,0.8,0.3c0.2,0.2,0.3,0.5,0.3,0.8c0,0.3-0.1,0.6-0.3,0.8c-0.2,0.2-0.5,0.3-0.8,0.3
			H233.7z"/>
		<path fill="#009DDF" d="M251,459.2c0.3,0,0.6,0.1,0.8,0.4c0.2,0.2,0.4,0.5,0.4,0.8v16c0,0.3-0.1,0.6-0.4,0.8s-0.5,0.3-0.8,0.3
			c-0.3,0-0.6-0.1-0.8-0.3s-0.3-0.5-0.3-0.8v-16c0-0.3,0.1-0.6,0.3-0.8C250.4,459.3,250.7,459.2,251,459.2z"/>
		<path fill="#009DDF" d="M267.9,459.1c2.7,0,4.9,0.9,6.6,2.6c1.6,1.7,2.5,4,2.5,6.7c-0.1,2.8-0.9,5-2.5,6.7
			c-1.7,1.8-3.9,2.6-6.6,2.6c-2.8,0-5-0.9-6.6-2.6c-1.6-1.7-2.5-4-2.5-6.7c0-2.7,0.9-5,2.5-6.7C262.9,460,265.1,459.1,267.9,459.1z
			 M267.9,475.5c2.1,0,3.8-0.7,5-2.1c1.2-1.3,1.8-3,1.8-5.1c0-2.1-0.6-3.8-1.8-5.1c-1.2-1.4-2.9-2.1-5-2.1c-2.1,0-3.8,0.7-5,2.1
			c-1.2,1.3-1.8,3-1.8,5.1c0,2.1,0.6,3.8,1.8,5.1C264.1,474.8,265.8,475.5,267.9,475.5z"/>
		<path fill="#009DDF" d="M289,475.5c3,0,4.6-1,4.6-3c0-0.8-0.6-1.5-1.7-2c-0.5-0.2-1.1-0.4-1.8-0.6c-0.7-0.2-1.3-0.3-2-0.5
			c-0.7-0.2-1.4-0.4-2-0.7c-0.7-0.2-1.3-0.6-1.8-0.9c-1.1-0.9-1.7-2-1.7-3.4c0-1.5,0.6-2.8,1.7-3.7c1.2-1.1,2.9-1.6,5-1.6
			c1.9,0,3.6,0.3,5.2,0.9c0.5,0.2,0.7,0.5,0.7,1c0,0.3-0.1,0.5-0.3,0.7c-0.2,0.2-0.4,0.4-0.6,0.4s-0.5-0.1-0.9-0.2
			c-1.1-0.4-2.4-0.6-3.9-0.6c-1.3,0-2.4,0.3-3.3,0.8c-0.9,0.5-1.3,1.3-1.3,2.2c0,1,0.6,1.7,1.7,2.2c0.5,0.2,1.1,0.4,1.8,0.6
			s1.3,0.3,2,0.5c0.7,0.2,1.4,0.4,2,0.6c0.7,0.2,1.2,0.5,1.8,0.9c1.1,0.8,1.7,2,1.7,3.6c0,1.5-0.6,2.7-1.8,3.6
			c-1.2,1-2.9,1.4-4.9,1.4c-2.2,0-4.3-0.4-6.2-1.2c-0.2-0.1-0.4-0.2-0.5-0.4c-0.1-0.2-0.2-0.4-0.2-0.7s0.1-0.5,0.3-0.7
			c0.2-0.2,0.4-0.3,0.7-0.3c0.3,0,0.6,0.1,0.9,0.2c0.4,0.2,1,0.4,1.8,0.6C286.9,475.4,287.9,475.5,289,475.5z"/>
		<path fill="#009DDF" d="M333.3,475.6c0.2,0.2,0.3,0.5,0.3,0.8c0,0.3-0.1,0.6-0.3,0.8c-0.2,0.2-0.5,0.3-0.8,0.3H322
			c-0.3,0-0.6-0.1-0.8-0.3s-0.3-0.5-0.3-0.8v-15.8c0-0.3,0.1-0.6,0.3-0.8c0.2-0.2,0.5-0.4,0.8-0.4h10.4c0.3,0,0.6,0.1,0.8,0.3
			c0.2,0.2,0.3,0.5,0.3,0.8c0,0.3-0.1,0.6-0.3,0.8c-0.2,0.2-0.5,0.3-0.8,0.3h-9.2v5.7h8.3c0.3,0,0.6,0.1,0.8,0.3
			c0.2,0.2,0.3,0.5,0.3,0.8c0,0.3-0.1,0.6-0.3,0.8c-0.2,0.2-0.5,0.3-0.8,0.3h-8.3v5.8h9.2C332.8,475.3,333,475.4,333.3,475.6z"/>
		<path fill="#009DDF" d="M346.5,459.3c2.9,0,5.2,1,6.9,2.9c0.8,0.8,1.3,1.8,1.7,2.9c0.4,1.1,0.6,2.2,0.6,3.3s-0.2,2.2-0.6,3.3
			c-0.4,1.1-0.9,2-1.7,2.9c-1.7,1.9-4,2.9-6.9,2.9h-5.2c-0.3,0-0.6-0.1-0.8-0.3s-0.3-0.5-0.3-0.8v-15.8c0-0.3,0.1-0.6,0.3-0.8
			c0.2-0.2,0.5-0.4,0.8-0.4H346.5z M346.2,475.3c2.1,0,3.9-0.6,5.2-1.9c1.3-1.3,1.9-2.9,1.9-5c0-2-0.6-3.7-1.9-5
			c-1.3-1.3-3.1-1.9-5.2-1.9h-3.7v13.7H346.2z"/>
		<path fill="#009DDF" d="M375.8,459.2c0.3,0,0.6,0.1,0.8,0.4c0.2,0.2,0.4,0.5,0.4,0.8v10.3c0,2.3-0.8,4.1-2.4,5.4
			c-1.4,1.1-3.1,1.7-5,1.7c-2,0-3.7-0.6-5-1.7c-1.6-1.3-2.4-3.1-2.4-5.4v-10.3c0-0.3,0.1-0.6,0.3-0.8c0.2-0.2,0.5-0.4,0.8-0.4
			c0.3,0,0.6,0.1,0.8,0.4c0.2,0.2,0.4,0.5,0.4,0.8v10.3c0,1.5,0.5,2.8,1.6,3.6c1,0.8,2.1,1.2,3.5,1.2c1.4,0,2.5-0.4,3.5-1.2
			c1.1-0.9,1.6-2.1,1.6-3.6v-10.3c0-0.3,0.1-0.6,0.3-0.8C375.1,459.3,375.4,459.2,375.8,459.2z"/>
		<path fill="#009DDF" d="M397.5,474.3c0.1-0.1,0.3-0.1,0.6-0.1s0.5,0.1,0.7,0.3c0.2,0.2,0.3,0.4,0.3,0.7c0,0.5-0.2,0.8-0.6,1
			c-0.8,0.5-1.7,0.8-2.6,1.1c-0.9,0.3-2,0.5-3.3,0.5c-1.3,0-2.5-0.2-3.6-0.6s-2.1-1-2.9-1.9c-1.7-1.7-2.6-4-2.6-6.8
			c0-2.9,0.9-5.1,2.6-6.8c1.7-1.7,3.8-2.5,6.5-2.5c1.3,0,2.4,0.2,3.3,0.5c0.9,0.3,1.6,0.6,2.1,0.9c0.5,0.3,0.8,0.5,0.9,0.7
			s0.2,0.4,0.2,0.6s-0.1,0.5-0.3,0.7c-0.2,0.2-0.4,0.3-0.7,0.3s-0.4,0-0.6-0.1c-0.7-0.4-1.4-0.7-2.1-0.9c-0.7-0.2-1.6-0.3-2.7-0.3
			c-1.1,0-2.1,0.2-2.9,0.5c-0.9,0.4-1.6,0.9-2.2,1.5c-1.2,1.3-1.7,2.9-1.7,5s0.6,3.8,1.7,5c1.3,1.4,3,2.1,5.2,2.1
			c1,0,1.9-0.1,2.6-0.3S396.8,474.6,397.5,474.3z"/>
		<path fill="#009DDF" d="M420,475.9c0.1,0.2,0.1,0.4,0.1,0.7c0,0.2-0.1,0.5-0.3,0.7s-0.5,0.3-1,0.3s-0.8-0.2-1-0.7l-1.7-4.1h-8.8
			l-1.7,4.1c-0.2,0.5-0.5,0.7-1,0.7c-0.5,0-0.8-0.1-1-0.3s-0.3-0.5-0.3-0.7c0-0.2,0-0.5,0.1-0.7l6.6-15.7c0.3-0.7,0.8-1.1,1.5-1.1
			h0.3c0.7,0,1.2,0.4,1.5,1.1L420,475.9z M415.3,470.7l-3.5-8.5l-3.5,8.5H415.3z"/>
		<path fill="#009DDF" d="M439,474.3c0.1-0.1,0.3-0.1,0.6-0.1c0.3,0,0.5,0.1,0.7,0.3c0.2,0.2,0.3,0.4,0.3,0.7c0,0.5-0.2,0.8-0.6,1
			c-0.8,0.5-1.7,0.8-2.6,1.1c-0.9,0.3-2,0.5-3.3,0.5c-1.3,0-2.5-0.2-3.6-0.6s-2.1-1-2.9-1.9c-1.7-1.7-2.6-4-2.6-6.8
			c0-2.9,0.9-5.1,2.6-6.8c1.7-1.7,3.8-2.5,6.5-2.5c1.3,0,2.4,0.2,3.3,0.5c0.9,0.3,1.6,0.6,2.1,0.9c0.5,0.3,0.8,0.5,0.9,0.7
			c0.1,0.2,0.2,0.4,0.2,0.6s-0.1,0.5-0.3,0.7c-0.2,0.2-0.4,0.3-0.7,0.3c-0.3,0-0.4,0-0.6-0.1c-0.7-0.4-1.4-0.7-2.1-0.9
			c-0.7-0.2-1.6-0.3-2.7-0.3c-1.1,0-2.1,0.2-2.9,0.5c-0.9,0.4-1.6,0.9-2.2,1.5c-1.2,1.3-1.7,2.9-1.7,5s0.6,3.8,1.7,5
			c1.3,1.4,3,2.1,5.2,2.1c1,0,1.9-0.1,2.6-0.3C437.6,474.9,438.3,474.6,439,474.3z"/>
		<path fill="#009DDF" d="M447.9,459.2c0.3,0,0.6,0.1,0.8,0.4c0.2,0.2,0.4,0.5,0.4,0.8v16c0,0.3-0.1,0.6-0.4,0.8s-0.5,0.3-0.8,0.3
			c-0.3,0-0.6-0.1-0.8-0.3c-0.2-0.2-0.3-0.5-0.3-0.8v-16c0-0.3,0.1-0.6,0.3-0.8C447.2,459.3,447.5,459.2,447.9,459.2z"/>
		<path fill="#009DDF" d="M464.7,459.1c2.7,0,4.9,0.9,6.6,2.6c1.6,1.7,2.5,4,2.5,6.7c-0.1,2.8-0.9,5-2.5,6.7
			c-1.7,1.8-3.9,2.6-6.6,2.6c-2.8,0-5-0.9-6.6-2.6c-1.6-1.7-2.5-4-2.5-6.7c0-2.7,0.9-5,2.5-6.7C459.8,460,462,459.1,464.7,459.1z
			 M464.7,475.5c2.1,0,3.8-0.7,5-2.1c1.2-1.3,1.8-3,1.8-5.1c0-2.1-0.6-3.8-1.8-5.1c-1.2-1.4-2.9-2.1-5-2.1c-2.1,0-3.8,0.7-5,2.1
			c-1.2,1.3-1.8,3-1.8,5.1c0,2.1,0.6,3.8,1.8,5.1C460.9,474.8,462.6,475.5,464.7,475.5z"/>
		<path fill="#009DDF" d="M495,459.2c0.3,0,0.6,0.1,0.8,0.4c0.2,0.2,0.4,0.5,0.4,0.8v15.5c0,0.5-0.2,0.9-0.5,1.2
			c-0.3,0.3-0.7,0.5-1.2,0.5h-0.3c-0.6,0-1-0.2-1.4-0.7l-10.1-14.5v14.1c0,0.3-0.1,0.6-0.4,0.8s-0.5,0.3-0.8,0.3
			c-0.3,0-0.6-0.1-0.8-0.3c-0.2-0.2-0.3-0.5-0.3-0.8v-15.5c0-0.5,0.2-0.9,0.5-1.2c0.3-0.3,0.7-0.5,1.2-0.5h0.3c0.5,0,1,0.3,1.4,0.8
			l10,14.5v-14c0-0.3,0.1-0.6,0.3-0.8C494.4,459.3,494.7,459.2,495,459.2z"/>
		<path fill="#009DDF" d="M518.7,475.9c0.1,0.2,0.1,0.4,0.1,0.7c0,0.2-0.1,0.5-0.3,0.7s-0.5,0.3-1,0.3c-0.5,0-0.8-0.2-1-0.7
			l-1.7-4.1H506l-1.7,4.1c-0.2,0.5-0.5,0.7-1,0.7c-0.5,0-0.8-0.1-1-0.3s-0.3-0.5-0.3-0.7c0-0.2,0-0.5,0.1-0.7l6.6-15.7
			c0.3-0.7,0.8-1.1,1.5-1.1h0.3c0.7,0,1.2,0.4,1.5,1.1L518.7,475.9z M513.9,470.7l-3.5-8.5l-3.5,8.5H513.9z"/>
		<path fill="#009DDF" d="M525.7,459.2c0.3,0,0.6,0.1,0.8,0.4c0.2,0.2,0.4,0.5,0.4,0.8v16c0,0.3-0.1,0.6-0.4,0.8s-0.5,0.3-0.8,0.3
			c-0.3,0-0.6-0.1-0.8-0.3c-0.2-0.2-0.3-0.5-0.3-0.8v-16c0-0.3,0.1-0.6,0.3-0.8C525.1,459.3,525.4,459.2,525.7,459.2z"/>
		<path fill="#009DDF" d="M540.1,475.5c3,0,4.5-1,4.5-3c0-0.8-0.6-1.5-1.7-2c-0.5-0.2-1.1-0.4-1.8-0.6c-0.7-0.2-1.3-0.3-2-0.5
			c-0.7-0.2-1.4-0.4-2-0.7c-0.7-0.2-1.3-0.6-1.8-0.9c-1.1-0.9-1.7-2-1.7-3.4c0-1.5,0.6-2.8,1.7-3.7c1.2-1.1,2.9-1.6,5-1.6
			c1.9,0,3.6,0.3,5.2,0.9c0.5,0.2,0.7,0.5,0.7,1c0,0.3-0.1,0.5-0.3,0.7c-0.2,0.2-0.4,0.4-0.6,0.4c-0.2,0-0.5-0.1-0.9-0.2
			c-1.1-0.4-2.4-0.6-3.9-0.6c-1.3,0-2.4,0.3-3.3,0.8c-0.9,0.5-1.3,1.3-1.3,2.2c0,1,0.6,1.7,1.7,2.2c0.5,0.2,1.1,0.4,1.8,0.6
			c0.7,0.2,1.3,0.3,2,0.5c0.7,0.2,1.4,0.4,2,0.6c0.7,0.2,1.2,0.5,1.8,0.9c1.1,0.8,1.7,2,1.7,3.6c0,1.5-0.6,2.7-1.8,3.6
			c-1.2,1-2.9,1.4-4.9,1.4c-2.2,0-4.3-0.4-6.2-1.2c-0.2-0.1-0.4-0.2-0.5-0.4c-0.1-0.2-0.2-0.4-0.2-0.7s0.1-0.5,0.3-0.7
			c0.2-0.2,0.4-0.3,0.7-0.3c0.3,0,0.6,0.1,0.9,0.2c0.4,0.2,1,0.4,1.8,0.6C538,475.4,538.9,475.5,540.1,475.5z"/>
		<path fill="#009DDF" d="M578.3,459.3c2.9,0,5.2,1,6.9,2.9c0.8,0.8,1.3,1.8,1.7,2.9c0.4,1.1,0.6,2.2,0.6,3.3s-0.2,2.2-0.6,3.3
			c-0.4,1.1-0.9,2-1.7,2.9c-1.7,1.9-4,2.9-6.9,2.9h-5.2c-0.3,0-0.6-0.1-0.8-0.3c-0.2-0.2-0.3-0.5-0.3-0.8v-15.8
			c0-0.3,0.1-0.6,0.3-0.8c0.2-0.2,0.5-0.4,0.8-0.4H578.3z M578,475.3c2.1,0,3.9-0.6,5.2-1.9c1.3-1.3,1.9-2.9,1.9-5
			c0-2-0.6-3.7-1.9-5c-1.3-1.3-3.1-1.9-5.2-1.9h-3.7v13.7H578z"/>
		<path fill="#009DDF" d="M595.2,459.2c0.3,0,0.6,0.1,0.8,0.4c0.2,0.2,0.4,0.5,0.4,0.8v16c0,0.3-0.1,0.6-0.4,0.8s-0.5,0.3-0.8,0.3
			c-0.3,0-0.6-0.1-0.8-0.3c-0.2-0.2-0.3-0.5-0.3-0.8v-16c0-0.3,0.1-0.6,0.3-0.8C594.6,459.3,594.9,459.2,595.2,459.2z"/>
		<path fill="#009DDF" d="M612.4,475.5c1.6,0,3.1-0.4,4.5-1.1v-4.7h-4.3c-0.3,0-0.5-0.1-0.8-0.3s-0.3-0.5-0.3-0.8s0.1-0.5,0.3-0.8
			c0.2-0.2,0.5-0.3,0.8-0.3h5.1c0.3,0,0.6,0.1,0.9,0.4s0.4,0.5,0.4,0.9v5.9c0,0.4-0.1,0.7-0.3,1c-0.2,0.3-0.4,0.5-0.7,0.6
			c-1.9,1-3.9,1.5-6,1.5c-2.7,0-4.9-0.9-6.6-2.6c-1.7-1.8-2.5-4-2.5-6.7c0-2.8,0.9-5,2.6-6.8c1.7-1.7,3.8-2.5,6.4-2.5
			c1.5,0,2.7,0.2,3.7,0.5c1,0.4,1.9,0.8,2.7,1.3c0.3,0.2,0.5,0.5,0.5,0.8s-0.1,0.6-0.3,0.9c-0.2,0.2-0.4,0.3-0.7,0.3s-0.5,0-0.7-0.1
			c-1.7-1-3.4-1.5-5.1-1.5c-2,0-3.7,0.6-4.9,1.8c-1.3,1.3-2,3-2,5.3c0,2,0.6,3.7,1.9,5C608.5,474.8,610.2,475.5,612.4,475.5z"/>
		<path fill="#009DDF" d="M627.1,459.2c0.3,0,0.6,0.1,0.8,0.4c0.2,0.2,0.4,0.5,0.4,0.8v16c0,0.3-0.1,0.6-0.4,0.8s-0.5,0.3-0.8,0.3
			c-0.3,0-0.6-0.1-0.8-0.3c-0.2-0.2-0.3-0.5-0.3-0.8v-16c0-0.3,0.1-0.6,0.3-0.8C626.5,459.3,626.8,459.2,627.1,459.2z"/>
		<path fill="#009DDF" d="M648.7,459.7c0.2,0.2,0.3,0.5,0.3,0.8c0,0.3-0.1,0.6-0.3,0.8c-0.2,0.2-0.5,0.3-0.8,0.3h-5.3v14.9
			c0,0.3-0.1,0.6-0.4,0.8c-0.2,0.2-0.5,0.3-0.8,0.3s-0.6-0.1-0.8-0.3s-0.3-0.5-0.3-0.8v-14.9h-5.3c-0.3,0-0.6-0.1-0.8-0.3
			s-0.3-0.5-0.3-0.8c0-0.3,0.1-0.6,0.3-0.8c0.2-0.2,0.5-0.3,0.8-0.3h12.9C648.2,459.3,648.4,459.4,648.7,459.7z"/>
		<path fill="#009DDF" d="M667.7,475.9c0.1,0.2,0.1,0.4,0.1,0.7c0,0.2-0.1,0.5-0.3,0.7s-0.5,0.3-1,0.3c-0.5,0-0.8-0.2-1-0.7
			l-1.7-4.1H655l-1.7,4.1c-0.2,0.5-0.5,0.7-1,0.7c-0.5,0-0.8-0.1-1-0.3s-0.3-0.5-0.3-0.7c0-0.2,0-0.5,0.1-0.7l6.6-15.7
			c0.3-0.7,0.8-1.1,1.5-1.1h0.3c0.7,0,1.2,0.4,1.5,1.1L667.7,475.9z M662.9,470.7l-3.5-8.5l-3.5,8.5H662.9z"/>
		<path fill="#009DDF" d="M674.8,459.2c0.3,0,0.6,0.1,0.8,0.4c0.2,0.2,0.4,0.5,0.4,0.8v16c0,0.3-0.1,0.6-0.4,0.8s-0.5,0.3-0.8,0.3
			c-0.3,0-0.6-0.1-0.8-0.3c-0.2-0.2-0.3-0.5-0.3-0.8v-16c0-0.3,0.1-0.6,0.3-0.8C674.1,459.3,674.4,459.2,674.8,459.2z"/>
		<path fill="#009DDF" d="M689.1,475.5c3,0,4.5-1,4.5-3c0-0.8-0.6-1.5-1.7-2c-0.5-0.2-1.1-0.4-1.8-0.6c-0.7-0.2-1.3-0.3-2-0.5
			c-0.7-0.2-1.4-0.4-2-0.7c-0.7-0.2-1.3-0.6-1.8-0.9c-1.1-0.9-1.7-2-1.7-3.4c0-1.5,0.6-2.8,1.7-3.7c1.2-1.1,2.9-1.6,5-1.6
			c1.9,0,3.6,0.3,5.2,0.9c0.5,0.2,0.7,0.5,0.7,1c0,0.3-0.1,0.5-0.3,0.7c-0.2,0.2-0.4,0.4-0.6,0.4c-0.2,0-0.5-0.1-0.9-0.2
			c-1.1-0.4-2.4-0.6-3.9-0.6c-1.3,0-2.4,0.3-3.3,0.8c-0.9,0.5-1.3,1.3-1.3,2.2c0,1,0.6,1.7,1.7,2.2c0.5,0.2,1.1,0.4,1.8,0.6
			c0.7,0.2,1.3,0.3,2,0.5c0.7,0.2,1.4,0.4,2,0.6c0.7,0.2,1.2,0.5,1.8,0.9c1.1,0.8,1.7,2,1.7,3.6c0,1.5-0.6,2.7-1.8,3.6
			c-1.2,1-2.9,1.4-4.9,1.4c-2.2,0-4.3-0.4-6.2-1.2c-0.2-0.1-0.4-0.2-0.5-0.4c-0.1-0.2-0.2-0.4-0.2-0.7s0.1-0.5,0.3-0.7
			c0.2-0.2,0.4-0.3,0.7-0.3c0.3,0,0.6,0.1,0.9,0.2c0.4,0.2,1,0.4,1.8,0.6C687,475.4,688,475.5,689.1,475.5z"/>
	</g>
</g>
</svg>
