<?xml version="1.0" encoding="utf-8"?>
<!-- Generator: Adobe Illustrator 19.1.0, SVG Export Plug-In . SVG Version: 6.00 Build 0)  -->
<svg version="1.0" id="Camada_1" xmlns="http://www.w3.org/2000/svg" xmlns:xlink="http://www.w3.org/1999/xlink" x="0px" y="0px"
	 viewBox="0 0 36 12" enable-background="new 0 0 36 12" xml:space="preserve">
<g>
	<path fill="#727272" d="M9,0c0.4,0,0.9,0.2,1.1,0.5l7.5,8.9c0.5,0.6,0.5,1.6-0.2,2.2c-0.6,0.5-1.6,0.5-2.1-0.2L9,3.9l-6.3,7.6
		c-0.5,0.6-1.5,0.7-2.1,0.2c-0.6-0.5-0.7-1.5-0.2-2.2l7.5-8.9C8.1,0.2,8.6,0,9,0z"/>
</g>
<g>
	<path fill="#727272" d="M27,12c-0.4,0-0.9-0.2-1.1-0.5l-7.5-8.9c-0.5-0.6-0.5-1.6,0.2-2.2c0.6-0.5,1.6-0.5,2.1,0.2L27,8.1l6.3-7.6
		c0.5-0.6,1.5-0.7,2.1-0.2c0.6,0.5,0.7,1.5,0.2,2.2l-7.5,8.9C27.9,11.8,27.4,12,27,12z"/>
</g>
</svg>
