<?xml version="1.0" encoding="utf-8"?>
<!-- Generator: Adobe Illustrator 19.1.0, SVG Export Plug-In . SVG Version: 6.00 Build 0)  -->
<svg version="1.0" id="Camada_1" xmlns="http://www.w3.org/2000/svg" xmlns:xlink="http://www.w3.org/1999/xlink" x="0px" y="0px"
	 viewBox="0 0 71 71" enable-background="new 0 0 71 71" xml:space="preserve">
<circle fill="#266AB8" cx="35.5" cy="35.5" r="35.5"/>
<g>
	<path fill="#FFFFFF" d="M54.6,44.6L54.6,44.6c-1.7,1.7-4.4,1.7-6.1,0l-16-16c-1.7-1.7-1.7-4.4,0-6.1l0,0c1.7-1.7,4.4-1.7,6.1,0
		l16,16C56.3,40.1,56.3,42.9,54.6,44.6z"/>
	<path fill="#FFFFFF" d="M16.4,44.6L16.4,44.6c-1.7-1.7-1.7-4.4,0-6.1l16-16c1.7-1.7,4.4-1.7,6.1,0l0,0c1.7,1.7,1.7,4.4,0,6.1
		l-16,16C20.8,46.2,18.1,46.2,16.4,44.6z"/>
</g>
</svg>
